<svg width="431" height="43" viewBox="0 0 431 43" fill="none" xmlns="http://www.w3.org/2000/svg">
<path d="M33.476 21.396C33.476 26.076 33.684 29.9067 34.1 32.888C34.5507 35.8693 35.452 38.296 36.804 40.168C34.7933 41.728 32.6267 42.508 30.304 42.508C28.12 42.508 26.4213 41.728 25.208 40.168C24.0293 38.5733 23.2493 36.06 22.868 32.628H11.428C11.1853 33.564 11.064 34.448 11.064 35.28C11.064 36.2853 11.1507 37.1693 11.324 37.932C11.4973 38.6947 11.7747 39.44 12.156 40.168C11.1853 40.8613 10.0413 41.416 8.724 41.832C7.40667 42.2827 6.124 42.508 4.876 42.508C3.28133 42.508 2.068 42.0747 1.236 41.208C0.438667 40.3413 0.0400001 39.076 0.0400001 37.412C0.0400001 35.2627 0.785333 32.316 2.276 28.572C3.80133 24.7933 6.592 18.9347 10.648 10.996L8.932 6.576C10.8733 5.39733 12.6413 4.56533 14.236 4.08C15.8307 3.56 17.564 3.3 19.436 3.3C21.412 3.3 22.8333 3.73333 23.7 4.6C25.3293 3.73333 26.7853 3.3 28.068 3.3C29.9747 3.3 31.3613 3.90666 32.228 5.12C33.0947 6.33333 33.528 8.27467 33.528 10.944L33.476 21.396ZM22.556 26.44V25.816C22.556 19.368 22.66 14.1507 22.868 10.164H22.244C18.4307 16.196 15.5187 21.6213 13.508 26.44H22.556ZM66.1113 9.8C68.0526 9.8 69.7513 10.3027 71.2073 11.308C72.6979 12.3133 73.8419 13.752 74.6393 15.624C75.4366 17.4613 75.8353 19.5933 75.8353 22.02C75.8353 26.0067 74.8819 29.5427 72.9753 32.628C71.0686 35.6787 68.3819 38.0533 64.9153 39.752C61.4486 41.4507 57.4793 42.3 53.0073 42.3C49.3326 42.3 46.7326 41.52 45.2073 39.96C43.7166 38.3653 42.9713 35.9387 42.9713 32.68C42.9713 31.2933 43.2139 29.0053 43.6993 25.816C44.1846 22.6267 45.1379 16.924 46.5593 8.708L43.6473 4.548C45.2073 3.404 46.8366 2.48533 48.5353 1.792C50.2339 1.09866 51.8459 0.751997 53.3713 0.751997C55.0006 0.751997 56.1446 1.04666 56.8033 1.636C57.4619 2.19066 57.7913 3.12666 57.7913 4.444C57.7913 5.34533 57.6526 6.45466 57.3753 7.772C57.1326 9.08933 56.7339 10.9267 56.1793 13.284C55.3819 16.7507 55.0526 18.1547 55.1913 17.496L55.7113 17.756C56.6819 15.26 58.0859 13.3187 59.9233 11.932C61.7953 10.5107 63.8579 9.8 66.1113 9.8ZM52.0713 36.944C54.5673 36.7013 56.8379 35.9733 58.8833 34.76C60.9286 33.5467 62.5406 32.004 63.7193 30.132C64.9326 28.2253 65.5393 26.1973 65.5393 24.048C65.5393 22.3493 65.1753 21.0493 64.4473 20.148C63.7539 19.212 62.7659 18.744 61.4833 18.744C59.7846 18.744 58.2073 19.5067 56.7513 21.032C55.3299 22.5227 54.1859 24.6547 53.3193 27.428C52.4873 30.1667 52.0713 33.3387 52.0713 36.944ZM106.359 13.752C108.37 13.752 109.999 14.5667 111.247 16.196C112.53 17.7907 113.171 19.8707 113.171 22.436C113.171 26.076 112.339 29.4213 110.675 32.472C109.011 35.488 106.741 37.88 103.863 39.648C101.021 41.416 97.8833 42.3 94.4513 42.3C91.5739 42.3 89.0606 41.7453 86.9113 40.636C84.7619 39.492 83.0979 37.8973 81.9193 35.852C80.7753 33.772 80.2033 31.3627 80.2033 28.624C80.2033 24.984 81.0526 21.7427 82.7513 18.9C84.4499 16.0573 86.7899 13.8387 89.7713 12.244C92.7873 10.6147 96.1846 9.8 99.9633 9.8C101.142 9.8 102.373 9.93867 103.655 10.216C104.002 11.4293 104.158 12.7467 104.123 14.168C104.886 13.8907 105.631 13.752 106.359 13.752ZM96.1153 36.944C98.1259 36.944 99.7899 36.1467 101.107 34.552C102.459 32.9573 103.309 30.756 103.655 27.948C101.021 26.492 99.7033 24.2733 99.7033 21.292C99.7033 19.8013 100.033 18.4667 100.691 17.288C101.35 16.0747 102.234 15.156 103.343 14.532C100.778 14.6707 98.5246 15.3987 96.5833 16.716C94.6419 17.9987 93.1339 19.6973 92.0593 21.812C91.0193 23.892 90.4993 26.1973 90.4993 28.728C90.4993 31.5707 90.9846 33.6507 91.9553 34.968C92.9606 36.2853 94.3473 36.944 96.1153 36.944ZM149.038 35.02C149.038 37.2733 149.576 38.8507 150.65 39.752C148.674 41.4507 146.612 42.3 144.462 42.3C142.59 42.3 141.152 41.884 140.146 41.052C139.176 40.22 138.586 38.9373 138.378 37.204L137.858 36.944C136.437 38.6427 134.773 39.96 132.866 40.896C130.96 41.832 128.862 42.3 126.574 42.3C123.801 42.3 121.738 41.6067 120.386 40.22C119.034 38.8333 118.358 36.7187 118.358 33.876C118.358 32.5933 118.462 31.2413 118.67 29.82C118.878 28.364 119.19 26.6307 119.606 24.62C119.884 23.2333 120.126 21.864 120.334 20.512C120.542 19.1253 120.646 17.9813 120.646 17.08C120.646 16.0747 120.542 15.156 120.334 14.324C120.161 13.492 119.901 12.8333 119.554 12.348C120.976 11.62 122.449 11.0133 123.974 10.528C125.534 10.0427 126.782 9.8 127.718 9.8C129.14 9.8 130.162 10.0947 130.786 10.684C131.445 11.2387 131.774 12.1747 131.774 13.492C131.774 14.324 131.601 15.6587 131.254 17.496C130.908 19.3333 130.544 21.188 130.162 23.06C129.781 24.8627 129.417 26.6307 129.07 28.364C128.758 30.0973 128.602 31.328 128.602 32.056C128.602 33.408 128.88 34.396 129.434 35.02C129.989 35.644 130.873 35.956 132.086 35.956C133.23 35.956 134.392 35.6093 135.57 34.916C136.784 34.188 137.841 33.2173 138.742 32.004C139.228 28.988 140.198 24.3427 141.654 18.068L138.742 13.7C141.134 12.2787 143.093 11.2733 144.618 10.684C146.178 10.0947 147.634 9.8 148.986 9.8C150.373 9.8 151.361 10.0947 151.95 10.684C152.574 11.2733 152.886 12.2613 152.886 13.648C152.886 14.0987 152.748 14.9307 152.47 16.144C152.228 17.3227 151.95 18.6227 151.638 20.044C150.841 23.3373 150.2 26.2147 149.714 28.676C149.264 31.1027 149.038 33.2173 149.038 35.02ZM176.789 12.244C178.176 12.244 179.112 12.4347 179.597 12.816C180.117 13.1973 180.377 13.9427 180.377 15.052C180.377 16.0227 180.1 17.2013 179.545 18.588C178.089 18.1027 176.46 17.86 174.657 17.86H173.825C173.028 20.7027 172.369 23.4587 171.849 26.128C171.329 28.7627 171.035 31.432 170.965 34.136L173.877 39.024C172.733 40.0987 171.485 40.9133 170.133 41.468C168.781 42.0227 167.464 42.3 166.181 42.3C164.309 42.3 162.836 41.832 161.761 40.896C160.721 39.96 160.201 38.2267 160.201 35.696C160.201 34.032 160.409 32.1773 160.825 30.132C161.241 28.052 161.831 25.4173 162.593 22.228L163.425 18.9C163.148 18.9347 162.715 18.952 162.125 18.952C160.739 18.952 159.785 18.7613 159.265 18.38C158.78 17.9987 158.537 17.2707 158.537 16.196C158.537 15.156 158.815 13.9773 159.369 12.66C160.825 13.1107 162.403 13.336 164.101 13.336C163.997 11.8107 163.599 10.1987 162.905 8.5C164.223 7.356 165.679 6.43733 167.273 5.744C168.903 5.05067 170.549 4.704 172.213 4.704C173.635 4.704 174.64 5.016 175.229 5.64C175.853 6.264 176.165 7.28666 176.165 8.708C176.165 9.40133 175.94 10.5973 175.489 12.296C175.767 12.2613 176.2 12.244 176.789 12.244Z" fill="white"/>
<path d="M225.444 25.972C226.727 29.3693 228.061 32.2293 229.448 34.552C230.835 36.8747 232.187 38.504 233.504 39.44C232.741 40.2027 231.615 40.8613 230.124 41.416C228.633 42.0053 227.281 42.3 226.068 42.3C223.641 42.3 221.717 41.676 220.296 40.428C218.909 39.1453 217.661 36.9267 216.552 33.772L214.784 28.78H214.576C212.669 28.78 211.005 28.5373 209.584 28.052C209.203 30.4093 209.012 32.2293 209.012 33.512C209.012 35.1067 209.116 36.3893 209.324 37.36C209.567 38.3307 209.983 39.2147 210.572 40.012C208.596 41.572 206.447 42.352 204.124 42.352C201.905 42.352 200.293 41.7973 199.288 40.688C198.283 39.5787 197.78 37.7933 197.78 35.332C197.78 33.8067 197.988 31.5187 198.404 28.468C198.855 25.4173 199.739 20.1307 201.056 12.608L198.3 7.044C202.217 4.51333 205.788 3.248 209.012 3.248C210.641 3.248 211.768 3.85467 212.392 5.068C214.68 3.924 217.332 3.352 220.348 3.352C222.74 3.352 224.803 3.872 226.536 4.912C228.304 5.91733 229.639 7.252 230.54 8.916C231.476 10.58 231.944 12.348 231.944 14.22C231.944 16.5427 231.389 18.744 230.28 20.824C229.205 22.904 227.593 24.62 225.444 25.972ZM210.624 22.176C211.179 22.2453 211.577 22.28 211.82 22.28C214.281 22.28 216.309 21.604 217.904 20.252C219.533 18.9 220.348 17.132 220.348 14.948C220.348 13.6653 219.88 12.5213 218.944 11.516C218.043 10.5107 216.76 10.008 215.096 10.008C214.403 10.008 213.64 10.1467 212.808 10.424C212.635 11.6027 212.063 14.7053 211.092 19.732L210.624 22.176ZM266.684 35.02C266.684 37.2733 267.221 38.8507 268.296 39.752C266.181 41.4507 263.945 42.3 261.588 42.3C259.82 42.3 258.45 41.7973 257.48 40.792C256.544 39.752 256.076 38.3133 256.076 36.476C256.076 35.8867 256.128 35.2627 256.232 34.604L255.712 34.344C254.741 36.84 253.32 38.7987 251.448 40.22C249.61 41.6067 247.565 42.3 245.312 42.3C243.37 42.3 241.654 41.7973 240.164 40.792C238.708 39.7867 237.581 38.3653 236.784 36.528C235.986 34.656 235.588 32.5067 235.588 30.08C235.588 26.0933 236.454 22.5747 238.188 19.524C239.956 16.4387 242.4 14.0467 245.52 12.348C248.674 10.6493 252.28 9.8 256.336 9.8C257.792 9.8 259.161 9.93867 260.444 10.216C260.721 10.8747 260.912 11.7587 261.016 12.868C262.437 11.6893 264.153 11.1 266.164 11.1C267.377 11.1 268.313 11.464 268.972 12.192C269.63 12.8853 269.96 13.8907 269.96 15.208C269.96 15.9013 269.838 16.9067 269.596 18.224C269.353 19.5413 269.058 20.928 268.712 22.384C268.053 25.192 267.55 27.584 267.204 29.56C266.857 31.5013 266.684 33.3213 266.684 35.02ZM249.94 33.356C252.505 33.356 254.55 31.848 256.076 28.832C257.601 25.7813 258.693 21.0493 259.352 14.636C256.856 14.8787 254.585 15.6413 252.54 16.924C250.494 18.172 248.865 19.784 247.652 21.76C246.473 23.7013 245.884 25.7987 245.884 28.052C245.884 29.7507 246.23 31.068 246.924 32.004C247.652 32.9053 248.657 33.356 249.94 33.356ZM281.249 42.3C279.134 42.3 277.591 41.7627 276.621 40.688C275.65 39.6133 275.165 38.0013 275.165 35.852C275.165 34.4653 275.511 31.7787 276.205 27.792C276.933 23.8053 277.678 20.1653 278.441 16.872L275.737 12.712C279.169 10.7707 282.375 9.8 285.357 9.8C286.778 9.8 287.835 10.1467 288.529 10.84C289.257 11.5333 289.621 12.504 289.621 13.752C289.621 14.6187 289.499 15.5373 289.257 16.508C289.049 17.444 288.771 18.2933 288.425 19.056L288.945 19.316C292.654 12.972 297.369 9.8 303.089 9.8C305.203 9.8 306.781 10.32 307.821 11.36C308.861 12.3653 309.381 13.9427 309.381 16.092C309.381 17.2707 309.259 18.5013 309.017 19.784C308.774 21.0667 308.41 22.7827 307.925 24.932C307.37 27.2547 306.954 29.1613 306.677 30.652C306.434 32.108 306.313 33.564 306.313 35.02C306.313 37.1693 306.677 38.7467 307.405 39.752C305.567 41.4507 303.661 42.3 301.685 42.3C299.57 42.3 298.027 41.7627 297.057 40.688C296.086 39.6133 295.601 38.0013 295.601 35.852C295.601 34.4307 295.757 32.9747 296.069 31.484C296.381 29.9933 296.831 28.2947 297.421 26.388C297.871 24.7933 298.201 23.5453 298.409 22.644C298.617 21.708 298.721 20.876 298.721 20.148C298.721 18.692 298.131 17.964 296.953 17.964C295.635 17.964 294.093 18.7267 292.325 20.252C290.557 21.7427 289.031 23.8053 287.749 26.44C286.501 29.04 285.877 31.9 285.877 35.02C285.877 37.1693 286.241 38.7467 286.969 39.752C285.131 41.4507 283.225 42.3 281.249 42.3ZM349.723 4.392C349.723 5.29333 349.584 6.45467 349.307 7.876C349.064 9.29733 348.666 11.2387 348.111 13.7C347.175 17.7907 346.43 21.448 345.875 24.672C345.355 27.8613 345.095 31.016 345.095 34.136C345.095 35.7307 345.216 36.892 345.459 37.62C345.736 38.348 346.152 39.0587 346.707 39.752C345.771 40.584 344.714 41.208 343.535 41.624C342.391 42.0747 341.299 42.3 340.259 42.3C338.179 42.3 336.671 41.6933 335.735 40.48C334.834 39.2667 334.383 37.3773 334.383 34.812V34.604L333.811 34.344C332.806 36.84 331.384 38.7987 329.547 40.22C327.744 41.6067 325.716 42.3 323.463 42.3C321.522 42.3 319.806 41.7973 318.315 40.792C316.859 39.7867 315.732 38.3653 314.935 36.528C314.138 34.656 313.739 32.5067 313.739 30.08C313.739 26.3707 314.606 23.0773 316.339 20.2C318.107 17.3227 320.551 15.0867 323.671 13.492C326.826 11.8973 330.431 11.1 334.487 11.1C335.77 11.1 336.948 11.204 338.023 11.412L338.491 8.656L335.579 4.496C337.139 3.352 338.768 2.43333 340.467 1.74C342.166 1.04666 343.778 0.699998 345.303 0.699998C346.932 0.699998 348.076 0.994665 348.735 1.584C349.394 2.13866 349.723 3.07466 349.723 4.392ZM335.215 27.428C335.631 24.932 336.29 21.1013 337.191 15.936C334.764 16.1787 332.546 16.872 330.535 18.016C328.524 19.16 326.93 20.616 325.751 22.384C324.607 24.152 324.035 26.0413 324.035 28.052C324.035 29.7507 324.382 31.068 325.075 32.004C325.803 32.9053 326.808 33.356 328.091 33.356C329.443 33.356 330.743 32.836 331.991 31.796C333.274 30.7213 334.348 29.2653 335.215 27.428ZM383.938 35.02C383.938 37.2733 384.475 38.8507 385.55 39.752C383.435 41.4507 381.199 42.3 378.842 42.3C377.074 42.3 375.704 41.7973 374.734 40.792C373.798 39.752 373.33 38.3133 373.33 36.476C373.33 35.8867 373.382 35.2627 373.486 34.604L372.966 34.344C371.995 36.84 370.574 38.7987 368.702 40.22C366.864 41.6067 364.819 42.3 362.566 42.3C360.624 42.3 358.908 41.7973 357.418 40.792C355.962 39.7867 354.835 38.3653 354.038 36.528C353.24 34.656 352.842 32.5067 352.842 30.08C352.842 26.0933 353.708 22.5747 355.442 19.524C357.21 16.4387 359.654 14.0467 362.774 12.348C365.928 10.6493 369.534 9.8 373.59 9.8C375.046 9.8 376.415 9.93867 377.698 10.216C377.975 10.8747 378.166 11.7587 378.27 12.868C379.691 11.6893 381.407 11.1 383.418 11.1C384.631 11.1 385.567 11.464 386.226 12.192C386.884 12.8853 387.214 13.8907 387.214 15.208C387.214 15.9013 387.092 16.9067 386.85 18.224C386.607 19.5413 386.312 20.928 385.966 22.384C385.307 25.192 384.804 27.584 384.458 29.56C384.111 31.5013 383.938 33.3213 383.938 35.02ZM367.194 33.356C369.759 33.356 371.804 31.848 373.33 28.832C374.855 25.7813 375.947 21.0493 376.606 14.636C374.11 14.8787 371.839 15.6413 369.794 16.924C367.748 18.172 366.119 19.784 364.906 21.76C363.727 23.7013 363.138 25.7987 363.138 28.052C363.138 29.7507 363.484 31.068 364.178 32.004C364.906 32.9053 365.911 33.356 367.194 33.356ZM399.075 42.3C396.995 42.3 395.487 41.6933 394.551 40.48C393.649 39.2667 393.199 37.3773 393.199 34.812C393.199 33.4253 393.476 30.9987 394.031 27.532C394.585 24.0307 395.365 19.524 396.371 14.012C396.544 12.868 396.717 11.8627 396.891 10.996C397.064 10.0947 397.203 9.31466 397.307 8.656L394.395 4.496C395.955 3.352 397.584 2.43333 399.283 1.74C400.981 1.04666 402.593 0.699998 404.119 0.699998C405.748 0.699998 406.892 0.994665 407.551 1.584C408.209 2.13866 408.539 3.07466 408.539 4.392C408.539 5.29333 408.4 6.45467 408.123 7.876C407.88 9.29733 407.481 11.2387 406.927 13.7C405.991 17.7907 405.245 21.448 404.691 24.672C404.171 27.8613 403.911 31.016 403.911 34.136C403.911 35.7307 404.032 36.892 404.275 37.62C404.552 38.348 404.968 39.0587 405.523 39.752C404.587 40.584 403.529 41.208 402.351 41.624C401.207 42.0747 400.115 42.3 399.075 42.3ZM419.394 26.492C418.042 26.492 417.089 26.1107 416.534 25.348C416.014 24.5853 415.754 23.4933 415.754 22.072C415.754 21.24 416.014 19.264 416.534 16.144C417.193 12.0533 417.522 9.40133 417.522 8.188C417.522 7.42533 417.418 6.68 417.21 5.952C417.002 5.18933 416.673 4.6 416.222 4.184C417.332 3.04 418.666 2.17333 420.226 1.584C421.786 0.994665 423.468 0.699998 425.27 0.699998C427.212 0.699998 428.633 1.18533 429.534 2.156C430.436 3.092 430.886 4.392 430.886 6.056C430.886 8.37867 430.193 11.3773 428.806 15.052C427.42 18.7267 426.05 21.8813 424.698 24.516C424.005 25.14 423.138 25.6253 422.098 25.972C421.093 26.3187 420.192 26.492 419.394 26.492ZM417.21 42.3C415.616 42.3 414.281 41.78 413.206 40.74C412.166 39.6653 411.646 38.3653 411.646 36.84C411.646 35.696 411.941 34.6213 412.53 33.616C413.12 32.576 413.917 31.7613 414.922 31.172C415.928 30.548 417.02 30.236 418.198 30.236C419.793 30.236 421.11 30.7733 422.15 31.848C423.225 32.888 423.762 34.1707 423.762 35.696C423.762 36.84 423.468 37.932 422.878 38.972C422.289 39.9773 421.492 40.7747 420.486 41.364C419.481 41.988 418.389 42.3 417.21 42.3Z" fill="url(#paint0_linear_51_1018)"/>
<defs>
<linearGradient id="paint0_linear_51_1018" x1="217.5" y1="-29" x2="217.5" y2="50" gradientUnits="userSpaceOnUse">
<stop stop-color="#65FD58"/>
<stop offset="1" stop-color="#00C2FF"/>
</linearGradient>
</defs>
</svg>
