<svg width="90" height="45" viewBox="0 0 90 45" fill="none" xmlns="http://www.w3.org/2000/svg">
<path d="M24.85 24.6C27.5167 25.1 29.6 26.15 31.1 27.75C32.6 29.3167 33.35 31.2667 33.35 33.6C33.35 35.7333 32.6167 37.6 31.15 39.2C29.7167 40.8 27.6667 42.0333 25 42.9C22.3333 43.7667 19.2167 44.2 15.65 44.2C10.2167 44.2 6.28333 43.5667 3.85 42.3C1.45 41 0.25 38.9 0.25 36C0.25 34.5667 0.45 32.45 0.85 29.65C1.25 26.85 2.01667 22.2 3.15 15.7L0.5 10.35C4.26667 7.91667 7.7 6.7 10.8 6.7C12.8667 6.7 14.1 7.7 14.5 9.7C17.9333 7.73333 21.3 6.75 24.6 6.75C27.2667 6.75 29.3667 7.43333 30.9 8.8C32.4333 10.1333 33.2 11.9667 33.2 14.3C33.2 16.6333 32.4833 18.6667 31.05 20.4C29.65 22.1333 27.5833 23.5333 24.85 24.6ZM14 14.05C13.5667 16.1167 13 19.45 12.3 24.05C15.3667 23.85 17.8 23.1333 19.6 21.9C21.4 20.6333 22.3 19.0333 22.3 17.1C22.3 14.6 20.8833 13.35 18.05 13.35C16.55 13.35 15.2 13.5833 14 14.05ZM16.15 38.55C18.05 38.55 19.5667 38.05 20.7 37.05C21.8667 36.0167 22.45 34.65 22.45 32.95C22.45 31.35 21.9167 30.1167 20.85 29.25C19.7833 28.35 18.2833 27.9 16.35 27.9C14.7833 27.9 13.2167 28.1667 11.65 28.7C11.25 31.9667 10.9167 34.8833 10.65 37.45C11.4167 37.7833 12.2833 38.05 13.25 38.25C14.25 38.45 15.2167 38.55 16.15 38.55ZM48.6031 10.25C47.0365 10.25 45.7531 9.88333 44.7531 9.15C43.7865 8.38333 43.3031 7.36666 43.3031 6.1C43.3031 4.96667 43.6531 3.98333 44.3531 3.15C45.0531 2.31666 45.9198 1.7 46.9531 1.3C48.0198 0.866664 49.0531 0.649997 50.0531 0.649997C51.6198 0.649997 52.8865 1.03333 53.8531 1.8C54.8531 2.53333 55.3531 3.53333 55.3531 4.8C55.3531 6.36667 54.6865 7.66667 53.3531 8.7C52.0198 9.73333 50.4365 10.25 48.6031 10.25ZM45.6031 44.25C43.5365 44.25 42.0365 43.7333 41.1031 42.7C40.1698 41.6667 39.7031 40.1167 39.7031 38.05C39.7031 35.8833 40.7698 30.1833 42.9031 20.95L40.1031 16.75C41.7031 15.6167 43.3531 14.7167 45.0531 14.05C46.7865 13.35 48.4198 13 49.9531 13C51.3198 13 52.2865 13.3 52.8531 13.9C53.4198 14.4667 53.7031 15.4 53.7031 16.7C53.7031 17.1333 53.5698 17.9333 53.3031 19.1C53.0698 20.2333 52.8031 21.4833 52.5031 22.85C51.7365 26.0167 51.1198 28.7833 50.6531 31.15C50.2198 33.4833 50.0031 35.5167 50.0031 37.25C50.0031 39.3833 50.5198 40.9 51.5531 41.8C49.6865 43.4333 47.7031 44.25 45.6031 44.25ZM83.2379 16.8C85.1712 16.8 86.7379 17.5833 87.9379 19.15C89.1712 20.6833 89.7879 22.6833 89.7879 25.15C89.7879 28.65 88.9879 31.8667 87.3879 34.8C85.7879 37.7 83.6046 40 80.8379 41.7C78.1046 43.4 75.0879 44.25 71.7879 44.25C69.0212 44.25 66.6046 43.7167 64.5379 42.65C62.4712 41.55 60.8712 40.0167 59.7379 38.05C58.6379 36.05 58.0879 33.7333 58.0879 31.1C58.0879 27.6 58.9046 24.4833 60.5379 21.75C62.1712 19.0167 64.4212 16.8833 67.2879 15.35C70.1879 13.7833 73.4546 13 77.0879 13C78.2212 13 79.4046 13.1333 80.6379 13.4C80.9712 14.5667 81.1212 15.8333 81.0879 17.2C81.8212 16.9333 82.5379 16.8 83.2379 16.8ZM73.3879 39.1C75.3212 39.1 76.9212 38.3333 78.1879 36.8C79.4879 35.2667 80.3046 33.15 80.6379 30.45C78.1046 29.05 76.8379 26.9167 76.8379 24.05C76.8379 22.6167 77.1546 21.3333 77.7879 20.2C78.4212 19.0333 79.2712 18.15 80.3379 17.55C77.8712 17.6833 75.7046 18.3833 73.8379 19.65C71.9712 20.8833 70.5212 22.5167 69.4879 24.55C68.4879 26.55 67.9879 28.7667 67.9879 31.2C67.9879 33.9333 68.4546 35.9333 69.3879 37.2C70.3546 38.4667 71.6879 39.1 73.3879 39.1Z" fill="url(#paint0_linear_51_1215)"/>
<defs>
<linearGradient id="paint0_linear_51_1215" x1="51.5" y1="-24" x2="51.5" y2="42" gradientUnits="userSpaceOnUse">
<stop stop-color="#65FD58"/>
<stop offset="1" stop-color="#00C2FF"/>
</linearGradient>
</defs>
</svg>
