<svg width="401" height="48" viewBox="0 0 401 48" fill="none" xmlns="http://www.w3.org/2000/svg">
<path d="M20.948 47.55C14.624 47.55 9.68467 45.8967 6.13 42.59C2.57533 39.2833 0.798 34.6747 0.798 28.764C0.798 23.4733 2.01733 18.72 4.456 14.504C6.936 10.2467 10.346 6.94 14.686 4.584C19.026 2.18667 23.8827 0.987999 29.256 0.987999C33.1827 0.987999 36.3033 1.71133 38.618 3.158C40.9327 4.56333 42.09 6.46467 42.09 8.862C42.09 10.8047 41.408 12.4167 40.044 13.698C38.68 14.938 36.944 15.558 34.836 15.558C32.8107 15.558 30.9507 15.0207 29.256 13.946C27.6027 12.83 26.28 11.2387 25.288 9.172C23.2213 9.95733 21.3407 11.342 19.646 13.326C17.9927 15.31 16.6907 17.666 15.74 20.394C14.7893 23.122 14.314 25.9947 14.314 29.012C14.314 32.7733 14.9547 35.708 16.236 37.816C17.5587 39.924 19.3773 40.978 21.692 40.978C23.5107 40.978 25.164 40.482 26.652 39.49C28.1813 38.4567 29.4007 37.072 30.31 35.336C31.2607 33.6 31.7773 31.678 31.86 29.57C34.5467 29.57 36.5927 30.066 37.998 31.058C39.4033 32.0087 40.106 33.4553 40.106 35.398C40.106 37.63 39.238 39.676 37.502 41.536C35.8073 43.396 33.4927 44.8633 30.558 45.938C27.6233 47.0127 24.42 47.55 20.948 47.55ZM77.478 13.512C79.8753 13.512 81.818 14.4833 83.306 16.426C84.8353 18.3273 85.6 20.8073 85.6 23.866C85.6 28.206 84.608 32.1947 82.624 35.832C80.64 39.428 77.9326 42.28 74.502 44.388C71.1126 46.496 67.372 47.55 63.28 47.55C59.8493 47.55 56.8526 46.8887 54.29 45.566C51.7273 44.202 49.7433 42.3007 48.338 39.862C46.974 37.382 46.292 34.5093 46.292 31.244C46.292 26.904 47.3046 23.0393 49.33 19.65C51.3553 16.2607 54.1453 13.6153 57.7 11.714C61.296 9.77133 65.3466 8.8 69.852 8.8C71.2573 8.8 72.7246 8.96533 74.254 9.296C74.6673 10.7427 74.8533 12.3133 74.812 14.008C75.7213 13.6773 76.61 13.512 77.478 13.512ZM65.264 41.164C67.6613 41.164 69.6453 40.2133 71.216 38.312C72.828 36.4107 73.8406 33.786 74.254 30.438C71.1126 28.702 69.542 26.0567 69.542 22.502C69.542 20.7247 69.9346 19.1333 70.72 17.728C71.5053 16.2813 72.5593 15.186 73.882 14.442C70.8233 14.6073 68.1366 15.4753 65.822 17.046C63.5073 18.5753 61.7093 20.6007 60.428 23.122C59.188 25.602 58.568 28.3507 58.568 31.368C58.568 34.7573 59.1466 37.2373 60.304 38.808C61.5026 40.3787 63.156 41.164 65.264 41.164ZM98.7285 47.55C96.2071 47.55 94.3678 46.9093 93.2105 45.628C92.0531 44.3467 91.4745 42.4247 91.4745 39.862C91.4745 38.2087 91.8878 35.0053 92.7145 30.252C93.5825 25.4987 94.4711 21.1587 95.3805 17.232L92.1565 12.272C96.2485 9.95733 100.072 8.8 103.626 8.8C105.321 8.8 106.582 9.21333 107.408 10.04C108.276 10.8667 108.71 12.024 108.71 13.512C108.71 14.5453 108.566 15.6407 108.276 16.798C108.028 17.914 107.698 18.9267 107.284 19.836L107.904 20.146C112.327 12.582 117.948 8.8 124.768 8.8C127.29 8.8 129.17 9.42 130.41 10.66C131.65 11.8587 132.27 13.7393 132.27 16.302C132.27 17.7073 132.126 19.1747 131.836 20.704C131.547 22.2333 131.113 24.2793 130.534 26.842C129.873 29.6113 129.377 31.8847 129.046 33.662C128.757 35.398 128.612 37.134 128.612 38.87C128.612 41.4327 129.046 43.3133 129.914 44.512C127.724 46.5373 125.45 47.55 123.094 47.55C120.573 47.55 118.734 46.9093 117.576 45.628C116.419 44.3467 115.84 42.4247 115.84 39.862C115.84 38.1673 116.026 36.4313 116.398 34.654C116.77 32.8767 117.308 30.8513 118.01 28.578C118.548 26.6767 118.94 25.1887 119.188 24.114C119.436 22.998 119.56 22.006 119.56 21.138C119.56 19.402 118.858 18.534 117.452 18.534C115.882 18.534 114.042 19.4433 111.934 21.262C109.826 23.0393 108.008 25.4987 106.478 28.64C104.99 31.74 104.246 35.15 104.246 38.87C104.246 41.4327 104.68 43.3133 105.548 44.512C103.358 46.5373 101.084 47.55 98.7285 47.55ZM161.089 11.714C162.742 11.714 163.858 11.9413 164.437 12.396C165.057 12.8507 165.367 13.7393 165.367 15.062C165.367 16.2193 165.036 17.6247 164.375 19.278C162.639 18.6993 160.696 18.41 158.547 18.41H157.555C156.604 21.7993 155.819 25.0853 155.199 28.268C154.579 31.4093 154.227 34.592 154.145 37.816L157.617 43.644C156.253 44.9253 154.765 45.8967 153.153 46.558C151.541 47.2193 149.97 47.55 148.441 47.55C146.209 47.55 144.452 46.992 143.171 45.876C141.931 44.76 141.311 42.6933 141.311 39.676C141.311 37.692 141.559 35.4807 142.055 33.042C142.551 30.562 143.253 27.4207 144.163 23.618L145.155 19.65C144.824 19.6913 144.307 19.712 143.605 19.712C141.951 19.712 140.815 19.4847 140.195 19.03C139.616 18.5753 139.327 17.7073 139.327 16.426C139.327 15.186 139.657 13.7807 140.319 12.21C142.055 12.7473 143.935 13.016 145.961 13.016C145.837 11.1973 145.361 9.27533 144.535 7.25C146.105 5.886 147.841 4.79066 149.743 3.964C151.685 3.13733 153.649 2.724 155.633 2.724C157.327 2.724 158.526 3.096 159.229 3.84C159.973 4.584 160.345 5.80333 160.345 7.498C160.345 8.32467 160.076 9.75067 159.539 11.776C159.869 11.7347 160.386 11.714 161.089 11.714ZM203.365 38.87C203.365 41.5567 204.005 43.4373 205.287 44.512C202.765 46.5373 200.099 47.55 197.289 47.55C195.181 47.55 193.548 46.9507 192.391 45.752C191.275 44.512 190.717 42.7967 190.717 40.606C190.717 39.9033 190.779 39.1593 190.903 38.374L190.283 38.064C189.125 41.04 187.431 43.3753 185.199 45.07C183.008 46.7233 180.569 47.55 177.883 47.55C175.568 47.55 173.522 46.9507 171.745 45.752C170.009 44.5533 168.665 42.8587 167.715 40.668C166.764 38.436 166.289 35.8733 166.289 32.98C166.289 28.2267 167.322 24.0313 169.389 20.394C171.497 16.7153 174.411 13.8633 178.131 11.838C181.892 9.81267 186.191 8.8 191.027 8.8C192.763 8.8 194.395 8.96533 195.925 9.296C196.255 10.0813 196.483 11.1353 196.607 12.458C198.301 11.0527 200.347 10.35 202.745 10.35C204.191 10.35 205.307 10.784 206.093 11.652C206.878 12.4787 207.271 13.6773 207.271 15.248C207.271 16.0747 207.126 17.2733 206.837 18.844C206.547 20.4147 206.196 22.068 205.783 23.804C204.997 27.152 204.398 30.004 203.985 32.36C203.571 34.6747 203.365 36.8447 203.365 38.87ZM183.401 36.886C186.459 36.886 188.898 35.088 190.717 31.492C192.535 27.8547 193.837 22.2127 194.623 14.566C191.647 14.8553 188.939 15.7647 186.501 17.294C184.062 18.782 182.119 20.704 180.673 23.06C179.267 25.3747 178.565 27.8753 178.565 30.562C178.565 32.5873 178.978 34.158 179.805 35.274C180.673 36.3487 181.871 36.886 183.401 36.886ZM230.092 47.55C224.678 47.55 220.441 46.124 217.382 43.272C214.365 40.42 212.856 36.4727 212.856 31.43C212.856 27.09 213.869 23.2047 215.894 19.774C217.92 16.3433 220.73 13.6567 224.326 11.714C227.964 9.77133 232.076 8.8 236.664 8.8C240.219 8.8 243.05 9.46133 245.158 10.784C247.266 12.1067 248.32 13.8633 248.32 16.054C248.32 17.8313 247.721 19.2987 246.522 20.456C245.324 21.572 243.774 22.13 241.872 22.13C240.095 22.13 238.462 21.634 236.974 20.642C235.528 19.6087 234.391 18.2033 233.564 16.426C231.994 17.0047 230.568 18.0587 229.286 19.588C228.005 21.076 226.992 22.874 226.248 24.982C225.504 27.09 225.132 29.2807 225.132 31.554C225.132 34.5713 225.649 36.9273 226.682 38.622C227.716 40.3167 229.162 41.164 231.022 41.164C232.428 41.164 233.75 40.7507 234.99 39.924C236.23 39.0973 237.222 37.9813 237.966 36.576C238.71 35.1707 239.103 33.6207 239.144 31.926C241.624 31.926 243.505 32.3807 244.786 33.29C246.109 34.1993 246.77 35.522 246.77 37.258C246.77 39.1593 246.026 40.8953 244.538 42.466C243.05 44.0367 241.025 45.2767 238.462 46.186C235.941 47.0953 233.151 47.55 230.092 47.55ZM275.644 11.714C277.297 11.714 278.413 11.9413 278.992 12.396C279.612 12.8507 279.922 13.7393 279.922 15.062C279.922 16.2193 279.591 17.6247 278.93 19.278C277.194 18.6993 275.251 18.41 273.102 18.41H272.11C271.159 21.7993 270.374 25.0853 269.754 28.268C269.134 31.4093 268.782 34.592 268.7 37.816L272.172 43.644C270.808 44.9253 269.32 45.8967 267.708 46.558C266.096 47.2193 264.525 47.55 262.996 47.55C260.764 47.55 259.007 46.992 257.726 45.876C256.486 44.76 255.866 42.6933 255.866 39.676C255.866 37.692 256.114 35.4807 256.61 33.042C257.106 30.562 257.808 27.4207 258.718 23.618L259.71 19.65C259.379 19.6913 258.862 19.712 258.16 19.712C256.506 19.712 255.37 19.4847 254.75 19.03C254.171 18.5753 253.882 17.7073 253.882 16.426C253.882 15.186 254.212 13.7807 254.874 12.21C256.61 12.7473 258.49 13.016 260.516 13.016C260.392 11.1973 259.916 9.27533 259.09 7.25C260.66 5.886 262.396 4.79066 264.298 3.964C266.24 3.13733 268.204 2.724 270.188 2.724C271.882 2.724 273.081 3.096 273.784 3.84C274.528 4.584 274.9 5.80333 274.9 7.498C274.9 8.32467 274.631 9.75067 274.094 11.776C274.424 11.7347 274.941 11.714 275.644 11.714ZM308.235 47.612C305.507 47.612 303.565 46.8473 302.407 45.318C301.25 43.7473 300.671 41.3087 300.671 38.002C300.671 36.1007 300.961 33.3313 301.539 29.694C302.118 26.0153 303.131 20.1667 304.577 12.148L301.291 5.514C305.962 2.49667 310.219 0.987999 314.063 0.987999C316.957 0.987999 319.292 1.67 321.069 3.034C322.847 4.35667 324.314 6.94 325.471 10.784C326.629 14.628 327.538 20.3113 328.199 27.834H328.943C331.01 21.014 333.986 14.8967 337.871 9.482C341.798 4.06733 346.613 1.36 352.317 1.36C354.88 1.36 356.657 1.95933 357.649 3.158C358.641 4.35666 359.137 5.98933 359.137 8.056C359.137 9.37866 358.373 13.7393 356.843 21.138C356.678 21.9233 356.347 23.5973 355.851 26.16C355.355 28.6813 354.983 30.748 354.735 32.36C354.487 33.972 354.363 35.1293 354.363 35.832C354.363 39.8413 354.983 42.838 356.223 44.822C353.743 46.682 351.181 47.612 348.535 47.612C345.807 47.612 343.865 46.8473 342.707 45.318C341.55 43.7473 340.971 41.3087 340.971 38.002C340.971 36.0593 341.261 33.29 341.839 29.694C342.418 26.0567 343.348 20.952 344.629 14.38H344.009C341.199 17.9347 338.863 22.2127 337.003 27.214C335.143 32.174 334.007 36.638 333.593 40.606C332.601 41.5567 331.485 42.28 330.245 42.776C329.005 43.2307 327.786 43.458 326.587 43.458C324.975 43.458 323.653 42.6727 322.619 41.102C321.586 39.49 320.718 36.5967 320.015 32.422C319.313 28.206 318.755 22.192 318.341 14.38H317.721C316.729 18.6373 315.861 22.8947 315.117 27.152C314.415 31.368 314.063 34.2613 314.063 35.832C314.063 39.8413 314.683 42.838 315.923 44.822C313.443 46.682 310.881 47.612 308.235 47.612ZM400.07 17.79C400.07 20.642 399.098 23.122 397.156 25.23C395.213 27.2967 392.423 28.888 388.786 30.004C385.19 31.0787 380.912 31.616 375.952 31.616V32.174C375.952 34.9847 376.427 37.196 377.378 38.808C378.37 40.3787 379.734 41.164 381.47 41.164C383.578 41.164 385.314 40.3993 386.678 38.87C388.042 37.2993 388.765 35.2533 388.848 32.732C391.328 32.732 393.208 33.1867 394.49 34.096C395.812 35.0053 396.474 36.328 396.474 38.064C396.474 39.8 395.75 41.3913 394.304 42.838C392.857 44.2847 390.873 45.4213 388.352 46.248C385.872 47.116 383.123 47.55 380.106 47.55C374.939 47.55 370.909 46.186 368.016 43.458C365.122 40.73 363.676 36.9273 363.676 32.05C363.676 27.6273 364.73 23.6593 366.838 20.146C368.946 16.5913 371.86 13.822 375.58 11.838C379.3 9.81267 383.474 8.8 388.104 8.8C391.906 8.8 394.841 9.58533 396.908 11.156C399.016 12.7267 400.07 14.938 400.07 17.79ZM385.996 16.054C383.97 16.054 382.069 17.0873 380.292 19.154C378.556 21.2207 377.316 23.8247 376.572 26.966C380.664 26.6353 383.805 25.788 385.996 24.424C388.228 23.06 389.344 21.2827 389.344 19.092C389.344 18.1827 389.034 17.4593 388.414 16.922C387.794 16.3433 386.988 16.054 385.996 16.054Z" fill="url(#paint0_linear_53_2081)"/>
<defs>
<linearGradient id="paint0_linear_53_2081" x1="226" y1="-37" x2="226" y2="27" gradientUnits="userSpaceOnUse">
<stop stop-color="#65FD58"/>
<stop offset="1" stop-color="#00C2FF"/>
</linearGradient>
</defs>
</svg>
