<svg width="192" height="169" viewBox="0 0 192 169" fill="none" xmlns="http://www.w3.org/2000/svg">
<g filter="url(#filter0_d_69_98)">
<path d="M68.4622 66.173C67.1499 66.8521 64.3533 66.9508 60.6036 66.4504C56.854 65.95 52.4126 64.8853 48.1234 63.4586C43.8341 62.0319 39.9959 60.3426 37.338 58.7117C34.6801 57.0808 33.3876 55.6219 33.7062 54.6123L38.0641 55.9316C37.8237 56.6936 38.7991 57.7946 40.805 59.0255C42.811 60.2563 45.7077 61.5313 48.9448 62.608C52.1819 63.6847 55.5338 64.4883 58.3637 64.8659C61.1936 65.2436 63.3042 65.1691 64.2946 64.6565L68.4622 66.173Z" fill="url(#paint0_radial_69_98)" fill-opacity="0.93" shape-rendering="crispEdges"/>
</g>
<defs>
<filter id="filter0_d_69_98" x="0.658691" y="0.612305" width="190.803" height="168.153" filterUnits="userSpaceOnUse" color-interpolation-filters="sRGB">
<feFlood flood-opacity="0" result="BackgroundImageFix"/>
<feColorMatrix in="SourceAlpha" type="matrix" values="0 0 0 0 0 0 0 0 0 0 0 0 0 0 0 0 0 0 127 0" result="hardAlpha"/>
<feMorphology radius="27" operator="dilate" in="SourceAlpha" result="effect1_dropShadow_69_98"/>
<feOffset dx="45" dy="24"/>
<feGaussianBlur stdDeviation="25.5"/>
<feComposite in2="hardAlpha" operator="out"/>
<feColorMatrix type="matrix" values="0 0 0 0 0 0 0 0 0 0 0 0 0 0 0 0 0 0 0.63 0"/>
<feBlend mode="normal" in2="BackgroundImageFix" result="effect1_dropShadow_69_98"/>
<feBlend mode="normal" in="SourceGraphic" in2="effect1_dropShadow_69_98" result="shape"/>
</filter>
<radialGradient id="paint0_radial_69_98" cx="0" cy="0" r="1" gradientUnits="userSpaceOnUse" gradientTransform="translate(69.8703 73.5488) rotate(-149.765) scale(41.4768 156.136)">
<stop offset="0.0941094"/>
<stop offset="0.389041" stop-color="#CEDE12"/>
<stop offset="1" stop-color="#FD58F6"/>
</radialGradient>
</defs>
</svg>
