<svg width="37" height="14" viewBox="0 0 37 14" fill="none" xmlns="http://www.w3.org/2000/svg">
<path d="M36.3365 3.48976C36.7616 2.71608 36.5764 2.08575 35.7948 1.64587C35.0132 1.20599 33.6553 0.96793 31.8226 0.949472C29.99 0.931014 27.7299 1.13264 25.2113 1.53928C22.6926 1.94592 19.9806 2.54706 17.2777 3.2978C14.5749 4.04854 11.9511 4.92946 9.60236 5.87474C7.25367 6.82002 5.2408 7.80523 3.71415 8.75676C2.1875 9.70829 1.18653 10.6015 0.786024 11.3698C0.385522 12.138 0.595843 12.7613 1.40127 13.1932L5.61363 11.7737C5.00577 11.4478 4.84704 10.9773 5.1493 10.3975C5.45156 9.81774 6.207 9.14361 7.35917 8.42549C8.51134 7.70736 10.0305 6.96382 11.803 6.25041C13.5756 5.537 15.5558 4.87217 17.5957 4.30559C19.6355 3.739 21.6823 3.28532 23.5831 2.97842C25.4839 2.67153 27.1896 2.51936 28.5728 2.53329C29.9559 2.54722 30.9807 2.72689 31.5706 3.05887C32.1605 3.39085 32.3002 3.86656 31.9794 4.45046L36.3365 3.48976Z" fill="url(#paint0_radial_69_16)"/>
<defs>
<radialGradient id="paint0_radial_69_16" cx="0" cy="0" r="1" gradientUnits="userSpaceOnUse" gradientTransform="translate(-6.97244 9.17097) rotate(-12.2469) scale(43.1811 137.542)">
<stop stop-color="#DE1212"/>
<stop offset="0.468376" stop-color="#141414"/>
<stop offset="0.772743" stop-color="#141B33"/>
<stop offset="1" stop-color="#123FDE"/>
</radialGradient>
</defs>
</svg>
