<svg width="37" height="14" viewBox="0 0 37 14" fill="none" xmlns="http://www.w3.org/2000/svg">
<path d="M35.1939 13.2955C36.1189 12.922 36.4626 12.3386 36.1994 11.589C35.9361 10.8395 35.0726 9.94301 33.6735 8.96667C32.2744 7.99033 30.3757 6.95934 28.1194 5.95074C25.8631 4.94213 23.3075 3.98198 20.6435 3.14202C17.9796 2.30207 15.2761 1.60402 12.7351 1.10003C10.1941 0.596046 7.88123 0.299152 5.96938 0.231533C4.05752 0.163913 2.59607 0.327316 1.69422 0.709532C0.792364 1.09175 0.47342 1.6829 0.761215 2.43881L5.10557 3.55544C4.88837 2.98495 5.12908 2.53881 5.80971 2.25034C6.49034 1.96188 7.5933 1.83856 9.03619 1.8896C10.4791 1.94063 12.2246 2.1647 14.1423 2.54506C16.06 2.92542 18.1003 3.45224 20.1108 4.08616C22.1214 4.72007 24.0501 5.4447 25.7529 6.2059C27.4558 6.9671 28.8887 7.74519 29.9446 8.48204C31.0005 9.21889 31.6522 9.89544 31.8509 10.4612C32.0496 11.0269 31.7902 11.4671 31.0921 11.749L35.1939 13.2955Z" fill="url(#paint0_radial_64_1557)"/>
<defs>
<radialGradient id="paint0_radial_64_1557" cx="0" cy="0" r="1" gradientUnits="userSpaceOnUse" gradientTransform="translate(10.0748 -10.6234) rotate(22.2477) scale(35.4033 132.888)">
<stop stop-color="#FD58F6"/>
<stop offset="0.673645" stop-color="#CEDE12"/>
<stop offset="1" stop-color="#141414"/>
</radialGradient>
</defs>
</svg>
