<svg width="192" height="169" viewBox="0 0 192 169" fill="none" xmlns="http://www.w3.org/2000/svg">
<g filter="url(#filter0_d_64_1566)">
<path d="M68.462 66.173C67.1497 66.8522 64.353 66.9509 60.6034 66.4505C56.8537 65.9501 52.4124 64.8854 48.1231 63.4587C43.8339 62.032 39.9957 60.3427 37.3378 58.7118C34.6798 57.0809 33.3874 55.622 33.706 54.6123L38.0639 55.9317C37.8234 56.6937 38.7988 57.7947 40.8048 59.0256C42.8108 60.2564 45.7075 61.5313 48.9446 62.6081C52.1817 63.6848 55.5336 64.4883 58.3635 64.866C61.1934 65.2437 63.304 65.1691 64.2944 64.6566L68.462 66.173Z" fill="url(#paint0_radial_64_1566)" fill-opacity="0.93" shape-rendering="crispEdges"/>
</g>
<defs>
<filter id="filter0_d_64_1566" x="0.658447" y="0.612305" width="190.804" height="168.153" filterUnits="userSpaceOnUse" color-interpolation-filters="sRGB">
<feFlood flood-opacity="0" result="BackgroundImageFix"/>
<feColorMatrix in="SourceAlpha" type="matrix" values="0 0 0 0 0 0 0 0 0 0 0 0 0 0 0 0 0 0 127 0" result="hardAlpha"/>
<feMorphology radius="27" operator="dilate" in="SourceAlpha" result="effect1_dropShadow_64_1566"/>
<feOffset dx="45" dy="24"/>
<feGaussianBlur stdDeviation="25.5"/>
<feComposite in2="hardAlpha" operator="out"/>
<feColorMatrix type="matrix" values="0 0 0 0 0 0 0 0 0 0 0 0 0 0 0 0 0 0 0.63 0"/>
<feBlend mode="normal" in2="BackgroundImageFix" result="effect1_dropShadow_64_1566"/>
<feBlend mode="normal" in="SourceGraphic" in2="effect1_dropShadow_64_1566" result="shape"/>
</filter>
<radialGradient id="paint0_radial_64_1566" cx="0" cy="0" r="1" gradientUnits="userSpaceOnUse" gradientTransform="translate(69.87 73.5489) rotate(-149.765) scale(41.4768 156.136)">
<stop offset="0.0941094"/>
<stop offset="0.389041" stop-color="#CEDE12"/>
<stop offset="1" stop-color="#FD58F6"/>
</radialGradient>
</defs>
</svg>
