<svg width="37" height="14" viewBox="0 0 37 14" fill="none" xmlns="http://www.w3.org/2000/svg">
<path d="M35.1941 13.2954C36.1192 12.9219 36.4629 12.3386 36.1996 11.589C35.9363 10.8394 35.0729 9.94295 33.6737 8.96661C32.2746 7.99027 30.376 6.95928 28.1197 5.95067C25.8634 4.94207 23.3078 3.98192 20.6438 3.14196C17.9798 2.302 15.2763 1.60396 12.7353 1.09997C10.1943 0.595985 7.88147 0.299091 5.96962 0.231472C4.05777 0.163852 2.59632 0.327255 1.69446 0.709471C0.792608 1.09169 0.473664 1.68284 0.761459 2.43875L5.10581 3.55538C4.88861 2.98489 5.12932 2.53874 5.80995 2.25028C6.49059 1.96182 7.59355 1.8385 9.03643 1.88954C10.4793 1.94057 12.2248 2.16464 14.1425 2.545C16.0602 2.92536 18.1006 3.45218 20.1111 4.08609C22.1216 4.72001 24.0503 5.44464 25.7532 6.20584C27.456 6.96704 28.8889 7.74513 29.9449 8.48198C31.0008 9.21883 31.6525 9.89538 31.8511 10.4611C32.0498 11.0268 31.7904 11.4671 31.0923 11.7489L35.1941 13.2954Z" fill="url(#paint0_radial_69_89)"/>
<defs>
<radialGradient id="paint0_radial_69_89" cx="0" cy="0" r="1" gradientUnits="userSpaceOnUse" gradientTransform="translate(10.075 -10.6235) rotate(22.2477) scale(35.4033 132.888)">
<stop stop-color="#FD58F6"/>
<stop offset="0.673645" stop-color="#CEDE12"/>
<stop offset="1" stop-color="#141414"/>
</radialGradient>
</defs>
</svg>
