<svg width="37" height="14" viewBox="0 0 37 14" fill="none" xmlns="http://www.w3.org/2000/svg">
<path d="M36.3365 3.48963C36.7616 2.71596 36.5764 2.08563 35.7948 1.64575C35.0132 1.20587 33.6553 0.967808 31.8226 0.94935C29.99 0.930892 27.7299 1.13252 25.2113 1.53916C22.6926 1.9458 19.9806 2.54694 17.2777 3.29768C14.5749 4.04842 11.9511 4.92933 9.60236 5.87462C7.25367 6.8199 5.2408 7.80511 3.71415 8.75664C2.1875 9.70816 1.18653 10.6014 0.786024 11.3696C0.385522 12.1379 0.595843 12.7612 1.40127 13.1931L5.61363 11.7736C5.00577 11.4476 4.84704 10.9772 5.1493 10.3974C5.45156 9.81762 6.207 9.14349 7.35917 8.42536C8.51134 7.70724 10.0305 6.9637 11.803 6.25029C13.5756 5.53688 15.5558 4.87205 17.5957 4.30547C19.6355 3.73888 21.6823 3.28519 23.5831 2.9783C25.4839 2.67141 27.1896 2.51924 28.5728 2.53317C29.9559 2.5471 30.9807 2.72677 31.5706 3.05875C32.1605 3.39073 32.3002 3.86644 31.9794 4.45033L36.3365 3.48963Z" fill="url(#paint0_radial_69_100)"/>
<defs>
<radialGradient id="paint0_radial_69_100" cx="0" cy="0" r="1" gradientUnits="userSpaceOnUse" gradientTransform="translate(-6.97244 9.17085) rotate(-12.2469) scale(43.1811 137.542)">
<stop stop-color="#DE1212"/>
<stop offset="0.468376" stop-color="#141414"/>
<stop offset="0.772743" stop-color="#141B33"/>
<stop offset="1" stop-color="#123FDE"/>
</radialGradient>
</defs>
</svg>
