<svg width="193" height="167" viewBox="0 0 193 167" fill="none" xmlns="http://www.w3.org/2000/svg">
<g filter="url(#filter0_d_69_97)">
<path d="M69.4487 54.2544C68.9609 55.4671 66.8803 57.0115 63.6022 58.594C60.3241 60.1766 56.077 61.6871 51.6678 62.8385C47.2587 63.9899 42.9946 64.7021 39.6859 64.8397C36.3772 64.9772 34.2544 64.5306 33.7207 63.5847L38.1 62.3144C38.5027 63.0283 40.1049 63.3654 42.602 63.2615C45.0991 63.1577 48.3172 62.6203 51.6448 61.7513C54.9724 60.8823 58.1777 59.7423 60.6517 58.5479C63.1257 57.3536 64.6959 56.1881 65.0641 55.2728L69.4487 54.2544Z" fill="url(#paint0_radial_69_97)"/>
</g>
<defs>
<filter id="filter0_d_69_97" x="0.720703" y="0.254395" width="191.728" height="166.61" filterUnits="userSpaceOnUse" color-interpolation-filters="sRGB">
<feFlood flood-opacity="0" result="BackgroundImageFix"/>
<feColorMatrix in="SourceAlpha" type="matrix" values="0 0 0 0 0 0 0 0 0 0 0 0 0 0 0 0 0 0 127 0" result="hardAlpha"/>
<feMorphology radius="27" operator="dilate" in="SourceAlpha" result="effect1_dropShadow_69_97"/>
<feOffset dx="45" dy="24"/>
<feGaussianBlur stdDeviation="25.5"/>
<feComposite in2="hardAlpha" operator="out"/>
<feColorMatrix type="matrix" values="0 0 0 0 0 0 0 0 0 0 0 0 0 0 0 0 0 0 0.63 0"/>
<feBlend mode="normal" in2="BackgroundImageFix" result="effect1_dropShadow_69_97"/>
<feBlend mode="normal" in="SourceGraphic" in2="effect1_dropShadow_69_97" result="shape"/>
</filter>
<radialGradient id="paint0_radial_69_97" cx="0" cy="0" r="1" gradientUnits="userSpaceOnUse" gradientTransform="translate(28.6102 68.7432) rotate(-9.14225) scale(49.0483 157.274)">
<stop stop-color="#E00A0A"/>
<stop offset="0.405124" stop-color="#141414"/>
<stop offset="0.787394" stop-color="#132668"/>
<stop offset="0.877838" stop-color="#123FDE"/>
</radialGradient>
</defs>
</svg>
