<svg width="37" height="14" viewBox="0 0 37 14" fill="none" xmlns="http://www.w3.org/2000/svg">
<path d="M35.1939 13.2955C36.1189 12.922 36.4626 12.3386 36.1994 11.589C35.9361 10.8394 35.0726 9.943 33.6735 8.96666C32.2744 7.99032 30.3757 6.95933 28.1194 5.95073C25.8631 4.94212 23.3075 3.98197 20.6435 3.14201C17.9796 2.30206 15.2761 1.60401 12.7351 1.10002C10.1941 0.596038 7.88123 0.299145 5.96938 0.231525C4.05752 0.163906 2.59607 0.327308 1.69422 0.709525C0.792364 1.09174 0.47342 1.68289 0.761215 2.4388L5.10557 3.55543C4.88837 2.98494 5.12908 2.5388 5.80971 2.25034C6.49034 1.96188 7.5933 1.83856 9.03619 1.88959C10.4791 1.94062 12.2246 2.16469 14.1423 2.54505C16.06 2.92541 18.1003 3.45223 20.1108 4.08615C22.1214 4.72007 24.0501 5.4447 25.7529 6.2059C27.4558 6.9671 28.8887 7.74519 29.9446 8.48203C31.0005 9.21888 31.6522 9.89544 31.8509 10.4611C32.0496 11.0269 31.7902 11.4671 31.0921 11.749L35.1939 13.2955Z" fill="url(#paint0_radial_120_14186)"/>
<defs>
<radialGradient id="paint0_radial_120_14186" cx="0" cy="0" r="1" gradientUnits="userSpaceOnUse" gradientTransform="translate(10.0748 -10.6234) rotate(22.2477) scale(35.4033 132.888)">
<stop stop-color="#FD58F6"/>
<stop offset="0.673645" stop-color="#CEDE12"/>
<stop offset="1" stop-color="#141414"/>
</radialGradient>
</defs>
</svg>
