<svg width="94" height="87" viewBox="0 0 94 87" fill="none" xmlns="http://www.w3.org/2000/svg">
<path d="M57.303 32.5181C55.3156 32.5181 53.8441 32.982 52.6922 33.568C52.5075 32.9603 51.9007 32.5154 51.1855 32.6483H42.4386C41.5738 32.5154 40.8733 33.1638 41.14 34.0048V63.8475C40.8733 64.6072 41.5738 65.2583 42.4386 65.204H51.1855C52.0502 65.2583 52.7508 64.6072 52.7508 63.8068L52.7478 45.771C52.7449 45.7628 52.7127 44.9001 53.3019 44.306C53.7738 43.8339 54.5858 43.5924 55.7084 43.5924C57.5786 43.5924 58.4111 44.3005 58.7218 45.8849V63.8068C58.414 64.6072 59.1146 65.2583 59.9793 65.204H69.1982C70.0629 65.2583 70.7635 64.6072 70.4528 63.8068V45.2826C70.7605 35.8632 63.5115 32.5181 57.303 32.5181V32.5181ZM67.6299 62.491H61.5446V45.8849C61.5446 42.6809 59.308 40.695 55.7114 40.695C53.6771 40.695 52.0942 41.2484 51.0037 42.339C49.4883 43.8583 49.6055 45.7845 49.9309 46.2132V62.491H44.0039V35.4155H49.6202V36.3271C49.6179 36.5986 49.6984 36.8653 49.8525 37.0964C50.0066 37.3275 50.228 37.5136 50.4913 37.6335C50.7546 37.7533 51.0491 37.802 51.3409 37.7739C51.6327 37.7458 51.9101 37.6421 52.1411 37.4747L52.5514 37.1817C53.7386 36.3162 54.9668 35.4182 57.306 35.4182C59.7272 35.4182 67.6329 36.1318 67.6329 45.2853V62.491H67.6299Z" fill="#00C2FF"/>
<path d="M32.3436 18.9912C29.0547 18.9912 26.3813 21.4655 26.3813 24.5094C26.3813 27.5534 29.0547 30.0276 32.3436 30.0276C35.6324 30.0276 38.3058 27.5534 38.3058 24.5094C38.3058 21.4655 35.6324 18.9912 32.3436 18.9912ZM32.3436 27.1302C30.7841 27.1302 29.5119 25.9527 29.5119 24.5094C29.5119 23.0661 30.7841 21.8887 32.3436 21.8887C33.903 21.8887 35.1752 23.0661 35.1752 24.5094C35.1752 25.9527 33.903 27.1302 32.3436 27.1302Z" fill="#00C2FF"/>
<path d="M36.5292 32.5151H27.8291C26.9644 32.5151 26.2638 33.1635 26.4807 34.0046V63.8474C26.2638 64.6071 26.9644 65.2582 27.8291 65.2039H36.5292C37.3939 65.2582 38.0945 64.6071 38.0945 63.8067V33.9639C38.0945 33.5796 37.9296 33.2112 37.636 32.9395C37.3424 32.6678 36.9443 32.5151 36.5292 32.5151ZM35.2746 62.4909H29.3944V35.4153H35.2746V62.4909Z" fill="#00C2FF"/>
<path d="M47 0C21.0817 0 0 19.5118 0 43.5C0 67.4882 21.0817 87 47 87C72.9183 87 94 67.4882 94 43.5C94 19.5118 72.9183 0 47 0ZM47 84.1025C22.8112 84.1025 3.1306 65.8875 3.1306 43.5C3.1306 21.1124 22.8112 2.89747 47 2.89747C71.1889 2.89747 90.8694 21.1124 90.8694 43.5C90.8694 65.8875 71.1889 84.1025 47 84.1025Z" fill="#00C2FF"/>
</svg>
