<svg width="63" height="65" viewBox="0 0 63 65" fill="none" xmlns="http://www.w3.org/2000/svg">
<path d="M37.8762 23.972C36.5626 23.972 35.5899 24.314 34.8285 24.746C34.7064 24.298 34.3054 23.97 33.8326 24.068H28.0511C27.4796 23.97 27.0165 24.448 27.1928 25.068V47.068C27.0165 47.628 27.4796 48.108 28.0511 48.0681H33.8326C34.4042 48.108 34.8672 47.628 34.8672 47.038L34.8653 33.742C34.8634 33.736 34.8421 33.1 35.2315 32.662C35.5434 32.314 36.0801 32.136 36.8222 32.136C38.0583 32.136 38.6086 32.658 38.8139 33.826V47.038C38.6105 47.628 39.0736 48.108 39.6451 48.0681H45.7386C46.3101 48.108 46.7732 47.628 46.5678 47.038V33.382C46.7712 26.438 41.9798 23.972 37.8762 23.972ZM44.702 46.068H40.6797V33.826C40.6797 31.464 39.2014 30 36.8241 30C35.4795 30 34.4332 30.408 33.7125 31.212C32.7108 32.332 32.7883 33.752 33.0034 34.068V46.068H29.0857V26.108H32.798V26.78C32.7965 26.9802 32.8497 27.1768 32.9516 27.3472C33.0534 27.5175 33.1998 27.6548 33.3738 27.7431C33.5478 27.8315 33.7424 27.8674 33.9353 27.8467C34.1282 27.8259 34.3116 27.7495 34.4642 27.626L34.7355 27.41C35.5202 26.772 36.332 26.11 37.8781 26.11C39.4785 26.11 44.7039 26.636 44.7039 33.384V46.068H44.702Z" fill="white"/>
<path d="M21.3784 14C19.2045 14 17.4375 15.824 17.4375 18.068C17.4375 20.312 19.2045 22.136 21.3784 22.136C23.5523 22.136 25.3193 20.312 25.3193 18.068C25.3193 15.824 23.5523 14 21.3784 14ZM21.3784 20C20.3476 20 19.5068 19.132 19.5068 18.068C19.5068 17.004 20.3476 16.136 21.3784 16.136C22.4091 16.136 23.25 17.004 23.25 18.068C23.25 19.132 22.4091 20 21.3784 20Z" fill="white"/>
<path d="M24.1451 23.97H18.3946C17.823 23.97 17.36 24.448 17.5034 25.068V47.068C17.36 47.628 17.823 48.108 18.3946 48.068H24.1451C24.7167 48.108 25.1797 47.628 25.1797 47.038V25.038C25.1797 24.7547 25.0707 24.4831 24.8767 24.2828C24.6827 24.0825 24.4195 23.97 24.1451 23.97ZM23.3159 46.068H19.4292V26.108H23.3159V46.068Z" fill="white"/>
<path d="M31.0659 0C13.9345 0 0 14.384 0 32.068C0 49.752 13.9345 64.136 31.0659 64.136C48.1973 64.136 62.1318 49.752 62.1318 32.068C62.1318 14.384 48.1973 0 31.0659 0ZM31.0659 62C15.0776 62 2.06925 48.572 2.06925 32.068C2.06925 15.564 15.0776 2.136 31.0659 2.136C47.0541 2.136 60.0625 15.564 60.0625 32.068C60.0625 48.572 47.0541 62 31.0659 62Z" fill="white"/>
</svg>
