<svg width="63" height="65" viewBox="0 0 63 65" fill="none" xmlns="http://www.w3.org/2000/svg">
<path d="M37.8762 23.9722C36.5625 23.9722 35.5899 24.3142 34.8285 24.7462C34.7064 24.2982 34.3053 23.9702 33.8326 24.0682H28.0511C27.4795 23.9702 27.0165 24.4482 27.1928 25.0682V47.0682C27.0165 47.6282 27.4795 48.1082 28.0511 48.0682H33.8326C34.4042 48.1082 34.8672 47.6282 34.8672 47.0382L34.8653 33.7422C34.8633 33.7362 34.842 33.1002 35.2315 32.6622C35.5434 32.3142 36.0801 32.1362 36.8222 32.1362C38.0583 32.1362 38.6085 32.6582 38.8139 33.8262V47.0382C38.6105 47.6282 39.0735 48.1082 39.6451 48.0682H45.7385C46.3101 48.1082 46.7732 47.6282 46.5678 47.0382V33.3822C46.7712 26.4382 41.9798 23.9722 37.8762 23.9722ZM44.702 46.0682H40.6797V33.8262C40.6797 31.4642 39.2014 30.0002 36.8241 30.0002C35.4795 30.0002 34.4332 30.4082 33.7125 31.2122C32.7108 32.3322 32.7883 33.7522 33.0033 34.0682V46.0682H29.0857V26.1082H32.798V26.7802C32.7964 26.9804 32.8497 27.1769 32.9515 27.3473C33.0534 27.5176 33.1997 27.6549 33.3737 27.7432C33.5478 27.8316 33.7424 27.8675 33.9353 27.8468C34.1282 27.8261 34.3115 27.7496 34.4642 27.6262L34.7355 27.4102C35.5202 26.7722 36.332 26.1102 37.8781 26.1102C39.4785 26.1102 44.7039 26.6362 44.7039 33.3842V46.0682H44.702Z" fill="#00C2FF"/>
<path d="M21.3784 14C19.2045 14 17.4375 15.824 17.4375 18.068C17.4375 20.312 19.2045 22.136 21.3784 22.136C23.5523 22.136 25.3193 20.312 25.3193 18.068C25.3193 15.824 23.5523 14 21.3784 14ZM21.3784 20C20.3476 20 19.5068 19.132 19.5068 18.068C19.5068 17.004 20.3476 16.136 21.3784 16.136C22.4091 16.136 23.25 17.004 23.25 18.068C23.25 19.132 22.4091 20 21.3784 20Z" fill="#00C2FF"/>
<path d="M24.1451 23.9702H18.3946C17.823 23.9702 17.36 24.4482 17.5034 25.0682V47.0682C17.36 47.6282 17.823 48.1082 18.3946 48.0682H24.1451C24.7167 48.1082 25.1797 47.6282 25.1797 47.0382V25.0382C25.1797 24.755 25.0707 24.4833 24.8767 24.283C24.6827 24.0827 24.4195 23.9702 24.1451 23.9702ZM23.3159 46.0682H19.4292V26.1082H23.3159V46.0682Z" fill="#00C2FF"/>
<path d="M31.0659 0C13.9345 0 0 14.384 0 32.068C0 49.752 13.9345 64.136 31.0659 64.136C48.1973 64.136 62.1318 49.752 62.1318 32.068C62.1318 14.384 48.1973 0 31.0659 0ZM31.0659 62C15.0776 62 2.06925 48.572 2.06925 32.068C2.06925 15.564 15.0776 2.136 31.0659 2.136C47.0541 2.136 60.0625 15.564 60.0625 32.068C60.0625 48.572 47.0541 62 31.0659 62Z" fill="#00C2FF"/>
</svg>
