<svg width="26" height="26" viewBox="0 0 26 26" fill="none" xmlns="http://www.w3.org/2000/svg">
<path d="M19.8247 15.897C19.8247 16.3469 19.691 16.8272 19.4211 17.3381C19.152 17.8507 18.7418 18.3377 18.1913 18.8007C17.6392 19.2641 16.945 19.6372 16.1073 19.9191C15.2692 20.2013 14.3262 20.3425 13.2759 20.3425C11.0446 20.3425 9.3014 19.6925 8.04892 18.3901C6.79644 17.0893 6.17041 15.3457 6.17041 13.1572C6.17041 11.6757 6.4564 10.3662 7.03002 9.22763C7.60364 8.09068 8.4323 7.21125 9.51847 6.58851C10.6038 5.967 11.9 5.65625 13.4088 5.65625C14.3439 5.65625 15.2019 5.79202 15.9818 6.06605C16.7626 6.33883 17.4242 6.69209 17.9664 7.12458C18.5095 7.55667 18.9234 8.01764 19.2086 8.50708C19.4954 8.99653 19.6386 9.45337 19.6386 9.87678C19.6386 10.308 19.4781 10.6757 19.1558 10.9749C18.8335 11.2754 18.4435 11.4248 17.9854 11.4248C17.6846 11.4248 17.4361 11.3476 17.2372 11.1937C17.0387 11.0393 16.8163 10.7896 16.5683 10.4451C16.1275 9.77526 15.6674 9.27261 15.1862 8.9371C14.7054 8.60159 14.0938 8.43404 13.3539 8.43404C12.2863 8.43404 11.4267 8.85085 10.7734 9.68447C10.1202 10.5181 9.79455 11.6583 9.79455 13.1048C9.79455 13.7841 9.87792 14.4081 10.0455 14.9772C10.2134 15.5463 10.4557 16.0316 10.773 16.4327C11.0782 16.8248 11.4733 17.1378 11.9248 17.3451C12.3746 17.5531 12.8678 17.6563 13.4067 17.6563C14.1297 17.6563 14.7492 17.4904 15.2663 17.1541C15.7813 16.8186 16.2381 16.3068 16.6347 15.6189C16.8555 15.2132 17.094 14.8959 17.3486 14.666C17.6045 14.4365 17.9181 14.3218 18.2891 14.3218C18.7295 14.3218 19.0959 14.4885 19.3864 14.8245C19.6786 15.1587 19.8239 15.5165 19.8239 15.8966" fill="#00C2FF"/>
<path d="M13.0006 0C5.82001 0 0 5.81886 0 13.0004C0 20.1795 5.81877 26 13.0006 26C20.18 26 26 20.1811 26 13.0004C26 5.8201 20.1812 0 13.0006 0ZM13.0006 24.2032C6.81291 24.2032 1.79639 19.1874 1.79639 12.9988C1.79639 6.81055 6.81291 1.79436 13.0006 1.79436C19.1875 1.79436 24.2048 6.81096 24.2048 12.9988C24.2048 19.1857 19.1891 24.2032 13.0006 24.2032Z" fill="#00C2FF"/>
</svg>
