<svg width="63" height="65" viewBox="0 0 63 65" fill="none" xmlns="http://www.w3.org/2000/svg">
<path d="M37.8762 23.9719C36.5626 23.9719 35.59 24.3139 34.8285 24.7459C34.7065 24.2979 34.3054 23.9699 33.8326 24.0679H28.0511C27.4796 23.9699 27.0165 24.4479 27.1928 25.0679V47.0679C27.0165 47.6279 27.4796 48.1079 28.0511 48.0679H33.8326C34.4042 48.1079 34.8673 47.6279 34.8673 47.0379L34.8653 33.7419C34.8634 33.7359 34.8421 33.0999 35.2315 32.6619C35.5435 32.3139 36.0802 32.1359 36.8222 32.1359C38.0583 32.1359 38.6086 32.6579 38.814 33.8259V47.0379C38.6105 47.6279 39.0736 48.1079 39.6452 48.0679H45.7386C46.3102 48.1079 46.7732 47.6279 46.5678 47.0379V33.3819C46.7713 26.4379 41.9798 23.9719 37.8762 23.9719ZM44.702 46.0679H40.6798V33.8259C40.6798 31.4639 39.2015 29.9999 36.8242 29.9999C35.4795 29.9999 34.4333 30.4079 33.7125 31.2119C32.7108 32.3319 32.7883 33.7519 33.0034 34.0679V46.0679H29.0858V26.1079H32.798V26.7799C32.7965 26.9801 32.8497 27.1767 32.9516 27.347C33.0534 27.5174 33.1998 27.6546 33.3738 27.743C33.5478 27.8314 33.7425 27.8672 33.9354 27.8465C34.1283 27.8258 34.3116 27.7494 34.4643 27.6259L34.7355 27.4099C35.5202 26.7719 36.332 26.1099 37.8782 26.1099C39.4785 26.1099 44.704 26.6359 44.704 33.3839V46.0679H44.702Z" fill="#00C2FF"/>
<path d="M21.3784 14C19.2045 14 17.4375 15.824 17.4375 18.068C17.4375 20.312 19.2045 22.136 21.3784 22.136C23.5523 22.136 25.3193 20.312 25.3193 18.068C25.3193 15.824 23.5523 14 21.3784 14ZM21.3784 20C20.3476 20 19.5068 19.132 19.5068 18.068C19.5068 17.004 20.3476 16.136 21.3784 16.136C22.4091 16.136 23.25 17.004 23.25 18.068C23.25 19.132 22.4091 20 21.3784 20Z" fill="#00C2FF"/>
<path d="M24.1451 23.97H18.3946C17.823 23.97 17.36 24.448 17.5034 25.068V47.068C17.36 47.628 17.823 48.108 18.3946 48.068H24.1451C24.7167 48.108 25.1797 47.628 25.1797 47.038V25.038C25.1797 24.7547 25.0707 24.4831 24.8767 24.2828C24.6827 24.0825 24.4195 23.97 24.1451 23.97ZM23.3159 46.068H19.4292V26.108H23.3159V46.068Z" fill="#00C2FF"/>
<path d="M31.0659 0C13.9345 0 0 14.384 0 32.068C0 49.752 13.9345 64.136 31.0659 64.136C48.1973 64.136 62.1318 49.752 62.1318 32.068C62.1318 14.384 48.1973 0 31.0659 0ZM31.0659 62C15.0776 62 2.06925 48.572 2.06925 32.068C2.06925 15.564 15.0776 2.136 31.0659 2.136C47.0541 2.136 60.0625 15.564 60.0625 32.068C60.0625 48.572 47.0541 62 31.0659 62Z" fill="#00C2FF"/>
</svg>
