<svg width="621" height="44" viewBox="0 0 621 44" fill="none" xmlns="http://www.w3.org/2000/svg">
<path d="M30.554 9.088C30.554 9.68933 30.39 10.9193 30.062 12.778C29.7613 14.6093 29.4197 16.5363 29.037 18.559C27.9437 24.4083 27.397 27.9207 27.397 29.096C27.397 30.3533 27.479 31.3647 27.643 32.13C27.8343 32.8953 28.1623 33.5923 28.627 34.221C27.069 35.451 25.3743 36.066 23.543 36.066C21.7937 36.066 20.5227 35.6287 19.73 34.754C18.9373 33.8793 18.541 32.4717 18.541 30.531C18.541 29.2463 18.7597 27.087 19.197 24.053H9.972C9.53467 26.7317 9.316 28.4127 9.316 29.096C9.316 30.3533 9.398 31.3647 9.562 32.13C9.75333 32.8953 10.0813 33.5923 10.546 34.221C8.988 35.451 7.29333 36.066 5.462 36.066C3.71267 36.066 2.44167 35.6287 1.649 34.754C0.856333 33.8793 0.46 32.4717 0.46 30.531C0.46 29.3283 0.624 27.5243 0.952 25.119C1.30733 22.7137 2.00433 18.5453 3.043 12.614L0.87 8.227C3.95867 6.23167 6.774 5.234 9.316 5.234C11.4207 5.234 12.473 6.51867 12.473 9.088C12.473 9.63466 12.3363 10.7143 12.063 12.327C11.817 13.9123 11.53 15.5933 11.202 17.37L10.874 19.174H20.017C20.2903 17.452 20.6593 15.2653 21.124 12.614L18.951 8.227C22.0397 6.23167 24.855 5.234 27.397 5.234C29.5017 5.234 30.554 6.51867 30.554 9.088ZM57.623 16.345C57.623 18.231 56.9806 19.871 55.696 21.265C54.4113 22.6317 52.5663 23.684 50.161 24.422C47.783 25.1327 44.954 25.488 41.674 25.488V25.857C41.674 27.7157 41.9883 29.178 42.617 30.244C43.273 31.2827 44.175 31.802 45.323 31.802C46.717 31.802 47.865 31.2963 48.767 30.285C49.669 29.2463 50.1473 27.8933 50.202 26.226C51.842 26.226 53.0856 26.5267 53.933 27.128C54.8076 27.7293 55.245 28.604 55.245 29.752C55.245 30.9 54.7666 31.9523 53.81 32.909C52.8533 33.8657 51.5413 34.6173 49.874 35.164C48.234 35.738 46.4163 36.025 44.421 36.025C41.0043 36.025 38.3393 35.123 36.426 33.319C34.5126 31.515 33.556 29.0003 33.556 25.775C33.556 22.8503 34.253 20.2263 35.647 17.903C37.041 15.5523 38.968 13.721 41.428 12.409C43.888 11.0697 46.6486 10.4 49.71 10.4C52.2246 10.4 54.1653 10.9193 55.532 11.958C56.926 12.9967 57.623 14.459 57.623 16.345ZM48.316 15.197C46.9766 15.197 45.7193 15.8803 44.544 17.247C43.396 18.6137 42.576 20.3357 42.084 22.413C44.79 22.1943 46.8673 21.634 48.316 20.732C49.792 19.83 50.53 18.6547 50.53 17.206C50.53 16.6047 50.325 16.1263 49.915 15.771C49.505 15.3883 48.972 15.197 48.316 15.197ZM66.4024 36.025C64.7624 36.025 63.5734 35.5467 62.8354 34.59C62.1247 33.6333 61.7694 32.1437 61.7694 30.121C61.7694 29.0277 61.9881 27.1143 62.4254 24.381C62.8627 21.6203 63.4777 18.067 64.2704 13.721C64.4071 12.819 64.5437 12.0263 64.6804 11.343C64.8171 10.6323 64.9264 10.0173 65.0084 9.498L62.7124 6.218C63.9424 5.316 65.2271 4.59167 66.5664 4.045C67.9057 3.49833 69.1767 3.225 70.3794 3.225C71.6641 3.225 72.5661 3.45733 73.0854 3.922C73.6047 4.35933 73.8644 5.09733 73.8644 6.136C73.8644 6.84667 73.7551 7.76233 73.5364 8.883C73.3451 10.0037 73.0307 11.5343 72.5934 13.475C71.8554 16.7003 71.2677 19.584 70.8304 22.126C70.4204 24.6407 70.2154 27.128 70.2154 29.588C70.2154 30.8453 70.3111 31.761 70.5024 32.335C70.7211 32.909 71.0491 33.4693 71.4864 34.016C70.7484 34.672 69.9147 35.164 68.9854 35.492C68.0834 35.8473 67.2224 36.025 66.4024 36.025ZM82.1778 36.025C80.5378 36.025 79.3488 35.5467 78.6108 34.59C77.9001 33.6333 77.5448 32.1437 77.5448 30.121C77.5448 29.0277 77.7635 27.1143 78.2008 24.381C78.6381 21.6203 79.2531 18.067 80.0458 13.721C80.1825 12.819 80.3191 12.0263 80.4558 11.343C80.5925 10.6323 80.7018 10.0173 80.7838 9.498L78.4878 6.218C79.7178 5.316 81.0025 4.59167 82.3418 4.045C83.6811 3.49833 84.9521 3.225 86.1548 3.225C87.4395 3.225 88.3415 3.45733 88.8608 3.922C89.3801 4.35933 89.6398 5.09733 89.6398 6.136C89.6398 6.84667 89.5305 7.76233 89.3118 8.883C89.1205 10.0037 88.8061 11.5343 88.3688 13.475C87.6308 16.7003 87.0431 19.584 86.6058 22.126C86.1958 24.6407 85.9908 27.128 85.9908 29.588C85.9908 30.8453 86.0865 31.761 86.2778 32.335C86.4965 32.909 86.8245 33.4693 87.2618 34.016C86.5238 34.672 85.6901 35.164 84.7608 35.492C83.8588 35.8473 82.9978 36.025 82.1778 36.025ZM112.918 13.516C114.504 13.516 115.788 14.1583 116.772 15.443C117.784 16.7003 118.289 18.3403 118.289 20.363C118.289 23.233 117.633 25.8707 116.321 28.276C115.009 30.654 113.219 32.54 110.95 33.934C108.709 35.328 106.235 36.025 103.529 36.025C101.261 36.025 99.2789 35.5877 97.5842 34.713C95.8895 33.811 94.5775 32.5537 93.6482 30.941C92.7462 29.301 92.2952 27.4013 92.2952 25.242C92.2952 22.372 92.9649 19.8163 94.3042 17.575C95.6435 15.3337 97.4885 13.5843 99.8392 12.327C102.217 11.0423 104.896 10.4 107.875 10.4C108.805 10.4 109.775 10.5093 110.786 10.728C111.06 11.6847 111.183 12.7233 111.155 13.844C111.757 13.6253 112.344 13.516 112.918 13.516ZM104.841 31.802C106.427 31.802 107.739 31.1733 108.777 29.916C109.843 28.6587 110.513 26.923 110.786 24.709C108.709 23.561 107.67 21.8117 107.67 19.461C107.67 18.2857 107.93 17.2333 108.449 16.304C108.969 15.3473 109.666 14.623 110.54 14.131C108.518 14.2403 106.741 14.8143 105.21 15.853C103.68 16.8643 102.491 18.2037 101.643 19.871C100.823 21.511 100.413 23.3287 100.413 25.324C100.413 27.5653 100.796 29.2053 101.561 30.244C102.354 31.2827 103.447 31.802 104.841 31.802ZM125.536 36.025C124.279 36.025 123.226 35.615 122.379 34.795C121.559 33.9477 121.149 32.9227 121.149 31.72C121.149 30.818 121.381 29.9707 121.846 29.178C122.311 28.358 122.939 27.7157 123.732 27.251C124.525 26.759 125.386 26.513 126.315 26.513C127.572 26.513 128.611 26.9367 129.431 27.784C130.278 28.604 130.702 29.6153 130.702 30.818C130.702 31.72 130.47 32.581 130.005 33.401C129.54 34.1937 128.912 34.8223 128.119 35.287C127.326 35.779 126.465 36.025 125.536 36.025ZM137.548 36.025C136.29 36.025 135.238 35.615 134.391 34.795C133.571 33.9477 133.161 32.9227 133.161 31.72C133.161 30.818 133.393 29.9707 133.858 29.178C134.322 28.358 134.951 27.7157 135.744 27.251C136.536 26.759 137.397 26.513 138.327 26.513C139.584 26.513 140.623 26.9367 141.443 27.784C142.29 28.604 142.714 29.6153 142.714 30.818C142.714 31.72 142.481 32.581 142.017 33.401C141.552 34.1937 140.923 34.8223 140.131 35.287C139.338 35.779 138.477 36.025 137.548 36.025ZM150.994 36.025C149.327 36.025 148.111 35.6013 147.345 34.754C146.58 33.9067 146.197 32.6357 146.197 30.941C146.197 29.8477 146.471 27.7293 147.017 24.586C147.591 21.4427 148.179 18.5727 148.78 15.976L146.648 12.696C149.354 11.1653 151.883 10.4 154.233 10.4C155.354 10.4 156.188 10.6733 156.734 11.22C157.308 11.7667 157.595 12.532 157.595 13.516C157.595 14.1993 157.5 14.9237 157.308 15.689C157.144 16.427 156.926 17.0967 156.652 17.698L157.062 17.903C158.62 15.2517 160.274 13.3383 162.023 12.163C163.773 10.9877 165.7 10.4 167.804 10.4C169.335 10.4 170.538 10.7827 171.412 11.548C172.314 12.3133 172.765 13.4613 172.765 14.992C172.765 15.812 172.629 16.714 172.355 17.698L172.765 17.903C174.323 15.2517 175.977 13.3383 177.726 12.163C179.476 10.9877 181.403 10.4 183.507 10.4C185.175 10.4 186.418 10.81 187.238 11.63C188.058 12.4227 188.468 13.6663 188.468 15.361C188.468 16.2903 188.373 17.2607 188.181 18.272C187.99 19.2833 187.703 20.6363 187.32 22.331C186.883 24.1623 186.555 25.6657 186.336 26.841C186.145 27.989 186.049 29.137 186.049 30.285C186.049 31.9797 186.336 33.2233 186.91 34.016C185.462 35.3553 183.958 36.025 182.4 36.025C180.706 36.025 179.476 35.6423 178.71 34.877C177.972 34.0843 177.603 32.909 177.603 31.351C177.603 30.0937 177.726 28.8637 177.972 27.661C178.246 26.4583 178.615 25.0507 179.079 23.438C179.407 22.29 179.653 21.3607 179.817 20.65C179.981 19.9393 180.063 19.2833 180.063 18.682C180.063 17.452 179.599 16.837 178.669 16.837C177.631 16.837 176.442 17.4383 175.102 18.641C173.79 19.8163 172.67 21.429 171.74 23.479C170.811 25.529 170.346 27.7977 170.346 30.285C170.346 31.9797 170.633 33.2233 171.207 34.016C169.759 35.3553 168.255 36.025 166.697 36.025C165.003 36.025 163.773 35.6423 163.007 34.877C162.269 34.0843 161.9 32.909 161.9 31.351C161.9 30.0937 162.023 28.8637 162.269 27.661C162.543 26.4583 162.912 25.0507 163.376 23.438C163.704 22.29 163.95 21.3607 164.114 20.65C164.278 19.9393 164.36 19.2833 164.36 18.682C164.36 17.452 163.896 16.837 162.966 16.837C161.928 16.837 160.739 17.4383 159.399 18.641C158.087 19.8163 156.967 21.429 156.037 23.479C155.108 25.529 154.643 27.7977 154.643 30.285C154.643 31.9797 154.93 33.2233 155.504 34.016C154.056 35.3553 152.552 36.025 150.994 36.025ZM214.58 10.4C217.231 10.4 218.557 11.6027 218.557 14.008C218.557 17.2607 217.545 21.224 215.523 25.898C213.5 30.572 210.685 34.6173 207.077 38.034C203.469 41.478 199.382 43.2 194.818 43.2C192.494 43.2 190.731 42.79 189.529 41.97C188.299 41.15 187.684 39.961 187.684 38.403C187.684 37.6377 187.889 36.886 188.299 36.148C188.709 35.41 189.173 34.8497 189.693 34.467C190.157 35.2323 190.813 35.861 191.661 36.353C192.508 36.845 193.588 37.091 194.9 37.091C196.376 37.091 197.906 36.64 199.492 35.738C197.906 35.328 196.731 34.4943 195.966 33.237C195.228 31.9523 194.763 30.5173 194.572 28.932C194.408 27.3467 194.326 25.2967 194.326 22.782C194.298 20.814 194.244 19.2423 194.162 18.067C194.107 16.8917 193.916 15.771 193.588 14.705C193.26 13.639 192.74 12.7917 192.03 12.163C193.478 10.9877 195.105 10.4 196.909 10.4C198.494 10.4 199.683 10.851 200.476 11.753C201.296 12.655 201.829 13.8167 202.075 15.238C202.348 16.6593 202.485 18.4087 202.485 20.486L202.444 24.75C202.444 26.6087 202.553 28.1393 202.772 29.342C202.99 30.5173 203.428 31.4057 204.084 32.007C205.915 29.9297 207.391 27.4013 208.512 24.422C209.66 21.4427 210.234 18.149 210.234 14.541C210.234 13.7757 210.165 12.983 210.029 12.163C210.575 11.6437 211.272 11.22 212.12 10.892C212.994 10.564 213.814 10.4 214.58 10.4ZM238.92 36.025C237.253 36.025 236.036 35.6013 235.271 34.754C234.506 33.9067 234.123 32.6357 234.123 30.941C234.123 29.8477 234.396 27.7293 234.943 24.586C235.517 21.4427 236.105 18.5727 236.706 15.976L234.574 12.696C237.28 11.1653 239.808 10.4 242.159 10.4C243.28 10.4 244.113 10.6733 244.66 11.22C245.234 11.7667 245.521 12.532 245.521 13.516C245.521 14.1993 245.425 14.9237 245.234 15.689C245.07 16.427 244.851 17.0967 244.578 17.698L244.988 17.903C247.913 12.901 251.63 10.4 256.14 10.4C257.807 10.4 259.051 10.81 259.871 11.63C260.691 12.4227 261.101 13.6663 261.101 15.361C261.101 16.2903 261.005 17.2607 260.814 18.272C260.623 19.2833 260.336 20.6363 259.953 22.331C259.516 24.1623 259.188 25.6657 258.969 26.841C258.778 27.989 258.682 29.137 258.682 30.285C258.682 31.9797 258.969 33.2233 259.543 34.016C258.094 35.3553 256.591 36.025 255.033 36.025C253.366 36.025 252.149 35.6013 251.384 34.754C250.619 33.9067 250.236 32.6357 250.236 30.941C250.236 29.8203 250.359 28.6723 250.605 27.497C250.851 26.3217 251.206 24.9823 251.671 23.479C252.026 22.2217 252.286 21.2377 252.45 20.527C252.614 19.789 252.696 19.133 252.696 18.559C252.696 17.411 252.231 16.837 251.302 16.837C250.263 16.837 249.047 17.4383 247.653 18.641C246.259 19.8163 245.056 21.4427 244.045 23.52C243.061 25.57 242.569 27.825 242.569 30.285C242.569 31.9797 242.856 33.2233 243.43 34.016C241.981 35.3553 240.478 36.025 238.92 36.025ZM289.096 30.285C289.096 32.0617 289.52 33.3053 290.367 34.016C288.7 35.3553 286.937 36.025 285.078 36.025C283.684 36.025 282.605 35.6287 281.839 34.836C281.101 34.016 280.732 32.8817 280.732 31.433C280.732 30.9683 280.773 30.4763 280.855 29.957L280.445 29.752C279.68 31.72 278.559 33.2643 277.083 34.385C275.635 35.4783 274.022 36.025 272.245 36.025C270.715 36.025 269.362 35.6287 268.186 34.836C267.038 34.0433 266.15 32.9227 265.521 31.474C264.893 29.998 264.578 28.3033 264.578 26.39C264.578 23.2467 265.262 20.4723 266.628 18.067C268.022 15.6343 269.949 13.7483 272.409 12.409C274.897 11.0697 277.739 10.4 280.937 10.4C282.085 10.4 283.165 10.5093 284.176 10.728C284.395 11.2473 284.545 11.9443 284.627 12.819C285.748 11.8897 287.101 11.425 288.686 11.425C289.643 11.425 290.381 11.712 290.9 12.286C291.42 12.8327 291.679 13.6253 291.679 14.664C291.679 15.2107 291.584 16.0033 291.392 17.042C291.201 18.0807 290.969 19.174 290.695 20.322C290.176 22.536 289.78 24.422 289.506 25.98C289.233 27.5107 289.096 28.9457 289.096 30.285ZM275.894 28.973C277.917 28.973 279.53 27.784 280.732 25.406C281.935 23.0007 282.796 19.2697 283.315 14.213C281.347 14.4043 279.557 15.0057 277.944 16.017C276.332 17.001 275.047 18.272 274.09 19.83C273.161 21.3607 272.696 23.0143 272.696 24.791C272.696 26.1303 272.97 27.169 273.516 27.907C274.09 28.6177 274.883 28.973 275.894 28.973ZM300.58 36.025C298.913 36.025 297.697 35.6013 296.931 34.754C296.166 33.9067 295.783 32.6357 295.783 30.941C295.783 29.8477 296.057 27.7293 296.603 24.586C297.177 21.4427 297.765 18.5727 298.366 15.976L296.234 12.696C298.94 11.1653 301.469 10.4 303.819 10.4C304.94 10.4 305.774 10.6733 306.32 11.22C306.894 11.7667 307.181 12.532 307.181 13.516C307.181 14.1993 307.086 14.9237 306.894 15.689C306.73 16.427 306.512 17.0967 306.238 17.698L306.648 17.903C308.206 15.2517 309.86 13.3383 311.609 12.163C313.359 10.9877 315.286 10.4 317.39 10.4C318.921 10.4 320.124 10.7827 320.998 11.548C321.9 12.3133 322.351 13.4613 322.351 14.992C322.351 15.812 322.215 16.714 321.941 17.698L322.351 17.903C323.909 15.2517 325.563 13.3383 327.312 12.163C329.062 10.9877 330.989 10.4 333.093 10.4C334.761 10.4 336.004 10.81 336.824 11.63C337.644 12.4227 338.054 13.6663 338.054 15.361C338.054 16.2903 337.959 17.2607 337.767 18.272C337.576 19.2833 337.289 20.6363 336.906 22.331C336.469 24.1623 336.141 25.6657 335.922 26.841C335.731 27.989 335.635 29.137 335.635 30.285C335.635 31.9797 335.922 33.2233 336.496 34.016C335.048 35.3553 333.544 36.025 331.986 36.025C330.292 36.025 329.062 35.6423 328.296 34.877C327.558 34.0843 327.189 32.909 327.189 31.351C327.189 30.0937 327.312 28.8637 327.558 27.661C327.832 26.4583 328.201 25.0507 328.665 23.438C328.993 22.29 329.239 21.3607 329.403 20.65C329.567 19.9393 329.649 19.2833 329.649 18.682C329.649 17.452 329.185 16.837 328.255 16.837C327.217 16.837 326.028 17.4383 324.688 18.641C323.376 19.8163 322.256 21.429 321.326 23.479C320.397 25.529 319.932 27.7977 319.932 30.285C319.932 31.9797 320.219 33.2233 320.793 34.016C319.345 35.3553 317.841 36.025 316.283 36.025C314.589 36.025 313.359 35.6423 312.593 34.877C311.855 34.0843 311.486 32.909 311.486 31.351C311.486 30.0937 311.609 28.8637 311.855 27.661C312.129 26.4583 312.498 25.0507 312.962 23.438C313.29 22.29 313.536 21.3607 313.7 20.65C313.864 19.9393 313.946 19.2833 313.946 18.682C313.946 17.452 313.482 16.837 312.552 16.837C311.514 16.837 310.325 17.4383 308.985 18.641C307.673 19.8163 306.553 21.429 305.623 23.479C304.694 25.529 304.229 27.7977 304.229 30.285C304.229 31.9797 304.516 33.2233 305.09 34.016C303.642 35.3553 302.138 36.025 300.58 36.025ZM365.724 16.345C365.724 18.231 365.081 19.871 363.797 21.265C362.512 22.6317 360.667 23.684 358.262 24.422C355.884 25.1327 353.055 25.488 349.775 25.488V25.857C349.775 27.7157 350.089 29.178 350.718 30.244C351.374 31.2827 352.276 31.802 353.424 31.802C354.818 31.802 355.966 31.2963 356.868 30.285C357.77 29.2463 358.248 27.8933 358.303 26.226C359.943 26.226 361.186 26.5267 362.034 27.128C362.908 27.7293 363.346 28.604 363.346 29.752C363.346 30.9 362.867 31.9523 361.911 32.909C360.954 33.8657 359.642 34.6173 357.975 35.164C356.335 35.738 354.517 36.025 352.522 36.025C349.105 36.025 346.44 35.123 344.527 33.319C342.613 31.515 341.657 29.0003 341.657 25.775C341.657 22.8503 342.354 20.2263 343.748 17.903C345.142 15.5523 347.069 13.721 349.529 12.409C351.989 11.0697 354.749 10.4 357.811 10.4C360.325 10.4 362.266 10.9193 363.633 11.958C365.027 12.9967 365.724 14.459 365.724 16.345ZM356.417 15.197C355.077 15.197 353.82 15.8803 352.645 17.247C351.497 18.6137 350.677 20.3357 350.185 22.413C352.891 22.1943 354.968 21.634 356.417 20.732C357.893 19.83 358.631 18.6547 358.631 17.206C358.631 16.6047 358.426 16.1263 358.016 15.771C357.606 15.3883 357.073 15.197 356.417 15.197ZM389.255 8.145C387.97 8.145 386.918 7.84433 386.098 7.243C385.305 6.61433 384.909 5.78066 384.909 4.742C384.909 3.81267 385.196 3.00633 385.77 2.323C386.344 1.63967 387.055 1.134 387.902 0.805998C388.777 0.450664 389.624 0.272997 390.444 0.272997C391.729 0.272997 392.767 0.587331 393.56 1.216C394.38 1.81733 394.79 2.63733 394.79 3.676C394.79 4.96067 394.243 6.02667 393.15 6.874C392.057 7.72133 390.758 8.145 389.255 8.145ZM386.795 36.025C385.1 36.025 383.87 35.6013 383.105 34.754C382.34 33.9067 381.957 32.6357 381.957 30.941C381.957 29.1643 382.832 24.4903 384.581 16.919L382.285 13.475C383.597 12.5457 384.95 11.8077 386.344 11.261C387.765 10.687 389.105 10.4 390.362 10.4C391.483 10.4 392.275 10.646 392.74 11.138C393.205 11.6027 393.437 12.368 393.437 13.434C393.437 13.7893 393.328 14.4453 393.109 15.402C392.918 16.3313 392.699 17.3563 392.453 18.477C391.824 21.0737 391.319 23.3423 390.936 25.283C390.581 27.1963 390.403 28.8637 390.403 30.285C390.403 32.0343 390.827 33.278 391.674 34.016C390.143 35.3553 388.517 36.025 386.795 36.025ZM406.709 36.025C403.128 36.025 400.531 35.574 398.919 34.672C397.306 33.7427 396.5 32.499 396.5 30.941C396.5 30.2303 396.705 29.4923 397.115 28.727C397.525 27.9617 398.099 27.3057 398.837 26.759C400.422 29.6017 402.896 31.023 406.258 31.023C407.16 31.023 408.089 30.818 409.046 30.408C410.002 29.9707 410.481 29.3557 410.481 28.563C410.481 28.071 410.166 27.6747 409.538 27.374C408.909 27.0733 407.857 26.6907 406.381 26.226C404.659 25.7067 403.224 25.201 402.076 24.709C400.928 24.1897 399.93 23.4653 399.083 22.536C398.235 21.5793 397.812 20.363 397.812 18.887C397.812 16.017 399.055 13.885 401.543 12.491C404.03 11.097 407.16 10.4 410.932 10.4C413.802 10.4 416.07 10.851 417.738 11.753C419.405 12.6277 420.239 13.7893 420.239 15.238C420.239 16.468 419.801 17.4383 418.927 18.149C418.052 18.8597 417 19.215 415.77 19.215C414.622 19.215 413.556 18.8597 412.572 18.149C411.588 17.4383 410.809 16.3997 410.235 15.033C409.087 15.1423 408.103 15.4567 407.283 15.976C406.463 16.4953 406.053 17.1377 406.053 17.903C406.053 18.5317 406.394 19.0237 407.078 19.379C407.761 19.7343 408.882 20.1443 410.44 20.609C412.134 21.1283 413.528 21.634 414.622 22.126C415.742 22.618 416.699 23.3423 417.492 24.299C418.312 25.2557 418.722 26.4993 418.722 28.03C418.722 29.8613 418.093 31.3783 416.835 32.581C415.578 33.7837 414.02 34.6583 412.162 35.205C410.33 35.7517 408.513 36.025 406.709 36.025Z" fill="white"/>
<path d="M458.177 23.151C459.189 25.8297 460.241 28.0847 461.334 29.916C462.428 31.7473 463.494 33.032 464.532 33.77C463.931 34.3713 463.043 34.8907 461.867 35.328C460.692 35.7927 459.626 36.025 458.669 36.025C456.756 36.025 455.239 35.533 454.118 34.549C453.025 33.5377 452.041 31.7883 451.166 29.301L449.772 25.365H449.608C448.105 25.365 446.793 25.1737 445.672 24.791C445.372 26.6497 445.221 28.0847 445.221 29.096C445.221 30.3533 445.303 31.3647 445.467 32.13C445.659 32.8953 445.987 33.5923 446.451 34.221C444.893 35.451 443.199 36.066 441.367 36.066C439.618 36.066 438.347 35.6287 437.554 34.754C436.762 33.8793 436.365 32.4717 436.365 30.531C436.365 29.3283 436.529 27.5243 436.857 25.119C437.213 22.7137 437.91 18.5453 438.948 12.614L436.775 8.227C439.864 6.23167 442.679 5.234 445.221 5.234C446.506 5.234 447.394 5.71233 447.886 6.669C449.69 5.767 451.781 5.316 454.159 5.316C456.045 5.316 457.672 5.726 459.038 6.546C460.432 7.33867 461.485 8.391 462.195 9.703C462.933 11.015 463.302 12.409 463.302 13.885C463.302 15.7163 462.865 17.452 461.99 19.092C461.143 20.732 459.872 22.085 458.177 23.151ZM446.492 20.158C446.93 20.2127 447.244 20.24 447.435 20.24C449.376 20.24 450.975 19.707 452.232 18.641C453.517 17.575 454.159 16.181 454.159 14.459C454.159 13.4477 453.79 12.5457 453.052 11.753C452.342 10.9603 451.33 10.564 450.018 10.564C449.472 10.564 448.87 10.6733 448.214 10.892C448.078 11.8213 447.627 14.2677 446.861 18.231L446.492 20.158ZM490.693 30.285C490.693 32.0617 491.117 33.3053 491.964 34.016C490.297 35.3553 488.534 36.025 486.675 36.025C485.281 36.025 484.201 35.6287 483.436 34.836C482.698 34.016 482.329 32.8817 482.329 31.433C482.329 30.9683 482.37 30.4763 482.452 29.957L482.042 29.752C481.277 31.72 480.156 33.2643 478.68 34.385C477.231 35.4783 475.619 36.025 473.842 36.025C472.311 36.025 470.958 35.6287 469.783 34.836C468.635 34.0433 467.747 32.9227 467.118 31.474C466.489 29.998 466.175 28.3033 466.175 26.39C466.175 23.2467 466.858 20.4723 468.225 18.067C469.619 15.6343 471.546 13.7483 474.006 12.409C476.493 11.0697 479.336 10.4 482.534 10.4C483.682 10.4 484.762 10.5093 485.773 10.728C485.992 11.2473 486.142 11.9443 486.224 12.819C487.345 11.8897 488.698 11.425 490.283 11.425C491.24 11.425 491.978 11.712 492.497 12.286C493.016 12.8327 493.276 13.6253 493.276 14.664C493.276 15.2107 493.18 16.0033 492.989 17.042C492.798 18.0807 492.565 19.174 492.292 20.322C491.773 22.536 491.376 24.422 491.103 25.98C490.83 27.5107 490.693 28.9457 490.693 30.285ZM477.491 28.973C479.514 28.973 481.126 27.784 482.329 25.406C483.532 23.0007 484.393 19.2697 484.912 14.213C482.944 14.4043 481.154 15.0057 479.541 16.017C477.928 17.001 476.644 18.272 475.687 19.83C474.758 21.3607 474.293 23.0143 474.293 24.791C474.293 26.1303 474.566 27.169 475.113 27.907C475.687 28.6177 476.48 28.973 477.491 28.973ZM502.177 36.025C500.51 36.025 499.293 35.6013 498.528 34.754C497.763 33.9067 497.38 32.6357 497.38 30.941C497.38 29.8477 497.653 27.7293 498.2 24.586C498.774 21.4427 499.362 18.5727 499.963 15.976L497.831 12.696C500.537 11.1653 503.065 10.4 505.416 10.4C506.537 10.4 507.37 10.6733 507.917 11.22C508.491 11.7667 508.778 12.532 508.778 13.516C508.778 14.1993 508.682 14.9237 508.491 15.689C508.327 16.427 508.108 17.0967 507.835 17.698L508.245 17.903C511.17 12.901 514.887 10.4 519.397 10.4C521.064 10.4 522.308 10.81 523.128 11.63C523.948 12.4227 524.358 13.6663 524.358 15.361C524.358 16.2903 524.262 17.2607 524.071 18.272C523.88 19.2833 523.593 20.6363 523.21 22.331C522.773 24.1623 522.445 25.6657 522.226 26.841C522.035 27.989 521.939 29.137 521.939 30.285C521.939 31.9797 522.226 33.2233 522.8 34.016C521.351 35.3553 519.848 36.025 518.29 36.025C516.623 36.025 515.406 35.6013 514.641 34.754C513.876 33.9067 513.493 32.6357 513.493 30.941C513.493 29.8203 513.616 28.6723 513.862 27.497C514.108 26.3217 514.463 24.9823 514.928 23.479C515.283 22.2217 515.543 21.2377 515.707 20.527C515.871 19.789 515.953 19.133 515.953 18.559C515.953 17.411 515.488 16.837 514.559 16.837C513.52 16.837 512.304 17.4383 510.91 18.641C509.516 19.8163 508.313 21.4427 507.302 23.52C506.318 25.57 505.826 27.825 505.826 30.285C505.826 31.9797 506.113 33.2233 506.687 34.016C505.238 35.3553 503.735 36.025 502.177 36.025ZM556.166 6.136C556.166 6.84667 556.057 7.76233 555.838 8.883C555.647 10.0037 555.333 11.5343 554.895 13.475C554.157 16.7003 553.57 19.584 553.132 22.126C552.722 24.6407 552.517 27.128 552.517 29.588C552.517 30.8453 552.613 31.761 552.804 32.335C553.023 32.909 553.351 33.4693 553.788 34.016C553.05 34.672 552.217 35.164 551.287 35.492C550.385 35.8473 549.524 36.025 548.704 36.025C547.064 36.025 545.875 35.5467 545.137 34.59C544.427 33.6333 544.071 32.1437 544.071 30.121V29.957L543.62 29.752C542.828 31.72 541.707 33.2643 540.258 34.385C538.837 35.4783 537.238 36.025 535.461 36.025C533.931 36.025 532.578 35.6287 531.402 34.836C530.254 34.0433 529.366 32.9227 528.737 31.474C528.109 29.998 527.794 28.3033 527.794 26.39C527.794 23.4653 528.478 20.8687 529.844 18.6C531.238 16.3313 533.165 14.5683 535.625 13.311C538.113 12.0537 540.955 11.425 544.153 11.425C545.165 11.425 546.094 11.507 546.941 11.671L547.31 9.498L545.014 6.218C546.244 5.316 547.529 4.59167 548.868 4.045C550.208 3.49833 551.479 3.225 552.681 3.225C553.966 3.225 554.868 3.45733 555.387 3.922C555.907 4.35933 556.166 5.09733 556.166 6.136ZM544.727 24.299C545.055 22.331 545.575 19.3107 546.285 15.238C544.372 15.4293 542.623 15.976 541.037 16.878C539.452 17.78 538.195 18.928 537.265 20.322C536.363 21.716 535.912 23.2057 535.912 24.791C535.912 26.1303 536.186 27.169 536.732 27.907C537.306 28.6177 538.099 28.973 539.11 28.973C540.176 28.973 541.201 28.563 542.185 27.743C543.197 26.8957 544.044 25.7477 544.727 24.299ZM583.143 30.285C583.143 32.0617 583.567 33.3053 584.414 34.016C582.747 35.3553 580.984 36.025 579.125 36.025C577.731 36.025 576.652 35.6287 575.886 34.836C575.148 34.016 574.779 32.8817 574.779 31.433C574.779 30.9683 574.82 30.4763 574.902 29.957L574.492 29.752C573.727 31.72 572.606 33.2643 571.13 34.385C569.682 35.4783 568.069 36.025 566.292 36.025C564.762 36.025 563.409 35.6287 562.233 34.836C561.085 34.0433 560.197 32.9227 559.568 31.474C558.94 29.998 558.625 28.3033 558.625 26.39C558.625 23.2467 559.309 20.4723 560.675 18.067C562.069 15.6343 563.996 13.7483 566.456 12.409C568.944 11.0697 571.786 10.4 574.984 10.4C576.132 10.4 577.212 10.5093 578.223 10.728C578.442 11.2473 578.592 11.9443 578.674 12.819C579.795 11.8897 581.148 11.425 582.733 11.425C583.69 11.425 584.428 11.712 584.947 12.286C585.467 12.8327 585.726 13.6253 585.726 14.664C585.726 15.2107 585.631 16.0033 585.439 17.042C585.248 18.0807 585.016 19.174 584.742 20.322C584.223 22.536 583.827 24.422 583.553 25.98C583.28 27.5107 583.143 28.9457 583.143 30.285ZM569.941 28.973C571.964 28.973 573.577 27.784 574.779 25.406C575.982 23.0007 576.843 19.2697 577.362 14.213C575.394 14.4043 573.604 15.0057 571.991 16.017C570.379 17.001 569.094 18.272 568.137 19.83C567.208 21.3607 566.743 23.0143 566.743 24.791C566.743 26.1303 567.017 27.169 567.563 27.907C568.137 28.6177 568.93 28.973 569.941 28.973ZM595.078 36.025C593.438 36.025 592.249 35.5467 591.511 34.59C590.801 33.6333 590.445 32.1437 590.445 30.121C590.445 29.0277 590.664 27.1143 591.101 24.381C591.539 21.6203 592.154 18.067 592.946 13.721C593.083 12.819 593.22 12.0263 593.356 11.343C593.493 10.6323 593.602 10.0173 593.684 9.498L591.388 6.218C592.618 5.316 593.903 4.59167 595.242 4.045C596.582 3.49833 597.853 3.225 599.055 3.225C600.34 3.225 601.242 3.45733 601.761 3.922C602.281 4.35933 602.54 5.09733 602.54 6.136C602.54 6.84667 602.431 7.76233 602.212 8.883C602.021 10.0037 601.707 11.5343 601.269 13.475C600.531 16.7003 599.944 19.584 599.506 22.126C599.096 24.6407 598.891 27.128 598.891 29.588C598.891 30.8453 598.987 31.761 599.178 32.335C599.397 32.909 599.725 33.4693 600.162 34.016C599.424 34.672 598.591 35.164 597.661 35.492C596.759 35.8473 595.898 36.025 595.078 36.025ZM611.1 23.561C610.034 23.561 609.282 23.2603 608.845 22.659C608.435 22.0577 608.23 21.1967 608.23 20.076C608.23 19.42 608.435 17.862 608.845 15.402C609.364 12.1767 609.624 10.0857 609.624 9.129C609.624 8.52766 609.542 7.94 609.378 7.366C609.214 6.76467 608.954 6.3 608.599 5.972C609.473 5.07 610.526 4.38666 611.756 3.922C612.986 3.45733 614.311 3.225 615.733 3.225C617.263 3.225 618.384 3.60767 619.095 4.373C619.805 5.111 620.161 6.136 620.161 7.448C620.161 9.27933 619.614 11.6437 618.521 14.541C617.427 17.4383 616.348 19.9257 615.282 22.003C614.735 22.495 614.052 22.8777 613.232 23.151C612.439 23.4243 611.728 23.561 611.1 23.561ZM609.378 36.025C608.12 36.025 607.068 35.615 606.221 34.795C605.401 33.9477 604.991 32.9227 604.991 31.72C604.991 30.818 605.223 29.9707 605.688 29.178C606.152 28.358 606.781 27.7157 607.574 27.251C608.366 26.759 609.227 26.513 610.157 26.513C611.414 26.513 612.453 26.9367 613.273 27.784C614.12 28.604 614.544 29.6153 614.544 30.818C614.544 31.72 614.311 32.581 613.847 33.401C613.382 34.1937 612.753 34.8223 611.961 35.287C611.168 35.779 610.307 36.025 609.378 36.025Z" fill="url(#paint0_linear_95_520)"/>
<defs>
<linearGradient id="paint0_linear_95_520" x1="371.5" y1="-20" x2="371.5" y2="66" gradientUnits="userSpaceOnUse">
<stop stop-color="#65FD58"/>
<stop offset="1" stop-color="#00C2FF"/>
</linearGradient>
</defs>
</svg>
