<svg width="219" height="33" viewBox="0 0 219 33" fill="none" xmlns="http://www.w3.org/2000/svg">
<path d="M13.396 7.248C15.6627 7.248 17.4873 7.87133 18.87 9.118C20.2753 10.342 20.978 12.042 20.978 14.218C20.978 15.714 20.57 17.1307 19.754 18.468C18.9607 19.7827 17.8727 20.9273 16.49 21.902C15.13 22.8767 13.6227 23.602 11.968 24.078L15.538 28.532C16.082 29.1893 16.7167 29.518 17.442 29.518C18.3487 29.518 19.4253 28.8947 20.672 27.648L21.386 28.294C20.57 29.45 19.652 30.4247 18.632 31.218C17.612 32.0113 16.558 32.408 15.47 32.408C14.722 32.408 14.0307 32.2153 13.396 31.83C12.784 31.4447 12.0927 30.7533 11.322 29.756L7.344 24.622L7.548 23.67C9.08933 23.466 10.5513 22.9787 11.934 22.208C13.3393 21.4147 14.4727 20.3947 15.334 19.148C16.218 17.8787 16.66 16.4507 16.66 14.864C16.66 13.2093 16.184 11.8947 15.232 10.92C14.3027 9.94533 12.886 9.458 10.982 9.458C9.39533 9.458 7.76333 9.832 6.086 10.58C4.43133 11.328 2.924 12.3027 1.564 13.504L0.68 12.552C2.38 10.988 4.318 9.71867 6.494 8.744C8.67 7.74667 10.9707 7.248 13.396 7.248ZM7.004 31.218L2.89 32.646V13.368L7.004 12.008V31.218ZM32.5608 15C33.7622 15 34.8728 15.238 35.8928 15.714C36.9355 16.19 37.7062 16.9267 38.2048 17.924L34.9068 19.284C34.5895 18.6947 34.1475 18.2073 33.5808 17.822C33.0142 17.4367 32.4135 17.244 31.7788 17.244C30.2602 17.244 29.0588 17.8787 28.1748 19.148C27.2908 20.4173 26.8488 22.004 26.8488 23.908C26.8488 25.6533 27.1095 27.0927 27.6308 28.226C28.1522 29.3367 28.9795 29.892 30.1128 29.892C31.6995 29.892 32.7875 29.1553 33.3768 27.682C33.9662 26.186 34.2608 24.5653 34.2608 22.82V21.324L38.2388 19.896V28.736C38.2388 29.0533 38.3068 29.3367 38.4428 29.586C38.6015 29.8127 38.8282 29.926 39.1228 29.926C39.6895 29.926 40.2675 29.5293 40.8568 28.736L41.5028 29.382C41.1628 30.1753 40.6188 30.8553 39.8708 31.422C39.1455 31.966 38.3635 32.238 37.5248 32.238C36.4368 32.238 35.6435 31.8753 35.1448 31.15C34.6462 30.402 34.3968 29.45 34.3968 28.294H34.2608C33.7168 29.518 32.9915 30.5153 32.0848 31.286C31.1782 32.034 30.1242 32.408 28.9228 32.408C27.1095 32.408 25.7042 31.7507 24.7068 30.436C23.7322 29.0987 23.2448 27.3647 23.2448 25.234C23.2448 23.4207 23.6302 21.732 24.4008 20.168C25.1942 18.604 26.2935 17.3573 27.6988 16.428C29.1268 15.476 30.7475 15 32.5608 15ZM56.5959 14.694C57.3893 14.694 57.9673 14.932 58.3299 15.408C58.6926 15.8613 58.9193 16.4053 59.0099 17.04C59.1006 17.652 59.1459 18.4453 59.1459 19.42V28.872C59.1459 29.144 59.2253 29.4047 59.3839 29.654C59.5653 29.8807 59.7806 29.994 60.0299 29.994C60.3699 29.994 60.6646 29.892 60.9139 29.688C61.1859 29.4613 61.4693 29.1667 61.7639 28.804L62.3419 29.45C61.9339 30.2433 61.3673 30.912 60.6419 31.456C59.9393 31.9773 59.1799 32.238 58.3639 32.238C57.2759 32.238 56.4599 31.932 55.9159 31.32C55.3719 30.6853 55.0999 29.8013 55.0999 28.668V19.76C55.0999 19.4427 55.0659 19.1707 54.9979 18.944C54.9299 18.7173 54.7713 18.604 54.5219 18.604C53.7513 18.604 52.9693 19.4313 52.1759 21.086C51.3826 22.718 50.7139 24.5993 50.1699 26.73C49.6259 28.8607 49.3539 30.47 49.3539 31.558L45.3759 32.442V18.162C45.3759 17.822 45.2966 17.5387 45.1379 17.312C44.9793 17.0853 44.7526 16.972 44.4579 16.972C44.1406 16.972 43.8233 17.108 43.5059 17.38C43.2113 17.6293 42.9619 17.924 42.7579 18.264L42.1459 17.584C42.4859 16.7907 43.0186 16.1107 43.7439 15.544C44.4693 14.9773 45.2513 14.694 46.0899 14.694C47.2233 14.694 48.0506 15.0113 48.5719 15.646C49.0933 16.258 49.3539 17.1193 49.3539 18.23V24.792H49.4899C50.1019 22.276 51.0086 19.964 52.2099 17.856C53.4339 15.748 54.8959 14.694 56.5959 14.694ZM79.3807 28.736C79.3807 29.0533 79.4487 29.3367 79.5847 29.586C79.7434 29.8127 79.97 29.926 80.2647 29.926C80.5594 29.926 80.854 29.8013 81.1487 29.552C81.466 29.3027 81.704 29.0307 81.8627 28.736L82.6107 29.382C82.2027 30.1753 81.636 30.8553 80.9107 31.422C80.208 31.966 79.4487 32.238 78.6327 32.238C77.454 32.238 76.604 31.9207 76.0827 31.286C75.5614 30.6287 75.312 29.6313 75.3347 28.294H75.1647C74.6434 29.4727 73.9634 30.4587 73.1247 31.252C72.286 32.0227 71.2774 32.408 70.0987 32.408C68.852 32.408 67.7867 32.0907 66.9027 31.456C66.0187 30.8213 65.35 29.9713 64.8967 28.906C64.4434 27.818 64.2167 26.6167 64.2167 25.302C64.2167 23.6247 64.5567 21.9813 65.2367 20.372C65.9394 18.74 66.948 17.4027 68.2627 16.36C69.5774 15.3173 71.1074 14.796 72.8527 14.796C73.7367 14.796 74.5414 15.0113 75.2667 15.442V2.012L79.3807 0.583999V28.736ZM72.7847 16.972C71.6967 16.972 70.79 17.346 70.0647 18.094C69.362 18.8193 68.8407 19.726 68.5007 20.814C68.1607 21.8793 67.9907 22.9333 67.9907 23.976C67.9907 25.3813 68.2627 26.7187 68.8067 27.988C69.3734 29.2573 70.2574 29.892 71.4587 29.892C72.9094 29.892 73.9067 29.1553 74.4507 27.682C74.9947 26.186 75.2667 24.5653 75.2667 22.82V18.094C74.5187 17.346 73.6914 16.972 72.7847 16.972ZM93.8206 15C95.0219 15 96.1326 15.238 97.1526 15.714C98.1953 16.19 98.9659 16.9267 99.4646 17.924L96.1666 19.284C95.8493 18.6947 95.4073 18.2073 94.8406 17.822C94.2739 17.4367 93.6733 17.244 93.0386 17.244C91.5199 17.244 90.3186 17.8787 89.4346 19.148C88.5506 20.4173 88.1086 22.004 88.1086 23.908C88.1086 25.6533 88.3693 27.0927 88.8906 28.226C89.4119 29.3367 90.2393 29.892 91.3726 29.892C92.9593 29.892 94.0473 29.1553 94.6366 27.682C95.2259 26.186 95.5206 24.5653 95.5206 22.82V21.324L99.4986 19.896V28.736C99.4986 29.0533 99.5666 29.3367 99.7026 29.586C99.8613 29.8127 100.088 29.926 100.383 29.926C100.949 29.926 101.527 29.5293 102.117 28.736L102.763 29.382C102.423 30.1753 101.879 30.8553 101.131 31.422C100.405 31.966 99.6233 32.238 98.7846 32.238C97.6966 32.238 96.9033 31.8753 96.4046 31.15C95.9059 30.402 95.6566 29.45 95.6566 28.294H95.5206C94.9766 29.518 94.2513 30.5153 93.3446 31.286C92.4379 32.034 91.3839 32.408 90.1826 32.408C88.3693 32.408 86.9639 31.7507 85.9666 30.436C84.9919 29.0987 84.5046 27.3647 84.5046 25.234C84.5046 23.4207 84.8899 21.732 85.6606 20.168C86.4539 18.604 87.5533 17.3573 88.9586 16.428C90.3866 15.476 92.0073 15 93.8206 15ZM109.866 28.872C109.866 29.1667 109.934 29.4273 110.07 29.654C110.228 29.8807 110.466 29.994 110.784 29.994C111.101 29.994 111.418 29.8693 111.736 29.62C112.076 29.3707 112.348 29.0987 112.552 28.804L113.164 29.45C112.778 30.2207 112.212 30.878 111.464 31.422C110.738 31.966 109.956 32.238 109.118 32.238C106.919 32.238 105.82 31.048 105.82 28.668V2.012L109.866 0.549998V28.872ZM132.011 8.405C134.101 8.405 135.806 8.977 137.126 10.121C138.468 11.243 139.139 12.937 139.139 15.203C139.139 16.677 138.732 18.074 137.918 19.394C137.126 20.692 136.07 21.825 134.75 22.793C133.43 23.739 132 24.421 130.46 24.839L134.057 29.228C134.695 29.822 135.333 30.119 135.971 30.119C136.499 30.119 137.038 29.921 137.588 29.525C138.138 29.129 138.699 28.645 139.271 28.073L139.766 28.502C139.678 28.612 139.337 29.063 138.743 29.855C138.171 30.625 137.5 31.263 136.73 31.769C135.982 32.275 135.245 32.528 134.519 32.528C133.903 32.528 133.309 32.341 132.737 31.967C132.187 31.571 131.582 30.955 130.922 30.119L126.962 25.268L127.16 24.377C128.634 24.223 130.042 23.772 131.384 23.024C132.748 22.254 133.848 21.242 134.684 19.988C135.52 18.734 135.938 17.348 135.938 15.83C135.938 14.18 135.432 12.86 134.42 11.87C133.43 10.88 131.956 10.385 129.998 10.385C128.48 10.385 126.874 10.748 125.18 11.474C123.508 12.178 122.045 13.102 120.791 14.246L120.164 13.553C121.77 12.057 123.64 10.825 125.774 9.857C127.93 8.889 130.009 8.405 132.011 8.405ZM125.213 31.274L122.177 32.495V14.345L125.213 13.19V31.274ZM151.27 15.203C152.458 15.203 153.448 15.522 154.24 16.16C155.032 16.798 155.428 17.744 155.428 18.998C155.428 20.01 154.878 21.143 153.778 22.397C152.7 23.629 151.424 24.762 149.95 25.796C148.498 26.83 147.255 27.556 146.221 27.974C146.771 28.854 147.398 29.47 148.102 29.822C148.806 30.152 149.631 30.317 150.577 30.317C151.633 30.317 152.678 30.053 153.712 29.525C154.768 28.975 155.637 28.271 156.319 27.413L156.715 28.106C155.637 29.492 154.493 30.559 153.283 31.307C152.073 32.033 150.588 32.396 148.828 32.396C147.486 32.396 146.287 32.066 145.231 31.406C144.175 30.746 143.35 29.866 142.756 28.766C142.162 27.644 141.865 26.434 141.865 25.136C141.865 23.508 142.305 21.924 143.185 20.384C144.065 18.844 145.231 17.601 146.683 16.655C148.135 15.687 149.664 15.203 151.27 15.203ZM149.554 17.282C148.586 17.282 147.717 17.59 146.947 18.206C146.199 18.822 145.605 19.614 145.165 20.582C144.747 21.55 144.538 22.551 144.538 23.585C144.538 24.949 144.857 26.115 145.495 27.083C146.419 26.665 147.42 26.038 148.498 25.202C149.576 24.344 150.489 23.42 151.237 22.43C151.985 21.44 152.359 20.538 152.359 19.724C152.359 18.096 151.424 17.282 149.554 17.282ZM162.538 12.167L161.449 12.563L160.096 5.699L163.66 4.478L162.538 12.167ZM163.627 29.228C163.627 29.558 163.704 29.833 163.858 30.053C164.034 30.251 164.276 30.35 164.584 30.35C164.826 30.35 165.09 30.24 165.376 30.02C165.684 29.8 165.992 29.481 166.3 29.063L166.828 29.558C166.322 30.504 165.706 31.175 164.98 31.571C164.276 31.967 163.627 32.165 163.033 32.165C162.241 32.165 161.625 31.912 161.185 31.406C160.767 30.9 160.558 30.042 160.558 28.832V16.82L163.627 15.632V29.228ZM181.675 15.203C182.555 15.203 183.127 15.533 183.391 16.193C183.655 16.831 183.787 17.722 183.787 18.866V19.889V29.228C183.787 29.47 183.864 29.723 184.018 29.987C184.172 30.229 184.392 30.35 184.678 30.35C185.052 30.35 185.371 30.229 185.635 29.987C185.899 29.745 186.163 29.437 186.427 29.063L186.922 29.558C186.592 30.262 186.097 30.878 185.437 31.406C184.777 31.912 184.15 32.165 183.556 32.165C182.676 32.165 181.994 31.89 181.51 31.34C181.026 30.79 180.784 29.954 180.784 28.832V20.087C180.784 19.757 180.751 19.482 180.685 19.262C180.619 19.042 180.454 18.932 180.19 18.932C179.288 18.932 178.364 19.801 177.418 21.539C176.472 23.277 175.658 25.224 174.976 27.38C174.316 29.514 173.986 30.922 173.986 31.604L171.115 32.462V18.338C171.115 18.03 171.027 17.755 170.851 17.513C170.697 17.249 170.466 17.117 170.158 17.117C169.63 17.117 169.058 17.59 168.442 18.536L167.947 18.008C168.233 17.216 168.706 16.556 169.366 16.028C170.026 15.478 170.686 15.203 171.346 15.203C172.27 15.203 172.952 15.423 173.392 15.863C173.854 16.303 174.085 16.908 174.085 17.678V26.357H174.217C174.811 24.399 175.383 22.694 175.933 21.242C176.483 19.79 177.253 18.426 178.243 17.15C179.233 15.852 180.377 15.203 181.675 15.203ZM198.353 15.203C199.541 15.203 200.531 15.522 201.323 16.16C202.115 16.798 202.511 17.744 202.511 18.998C202.511 20.01 201.961 21.143 200.861 22.397C199.783 23.629 198.507 24.762 197.033 25.796C195.581 26.83 194.338 27.556 193.304 27.974C193.854 28.854 194.481 29.47 195.185 29.822C195.889 30.152 196.714 30.317 197.66 30.317C198.716 30.317 199.761 30.053 200.795 29.525C201.851 28.975 202.72 28.271 203.402 27.413L203.798 28.106C202.72 29.492 201.576 30.559 200.366 31.307C199.156 32.033 197.671 32.396 195.911 32.396C194.569 32.396 193.37 32.066 192.314 31.406C191.258 30.746 190.433 29.866 189.839 28.766C189.245 27.644 188.948 26.434 188.948 25.136C188.948 23.508 189.388 21.924 190.268 20.384C191.148 18.844 192.314 17.601 193.766 16.655C195.218 15.687 196.747 15.203 198.353 15.203ZM196.637 17.282C195.669 17.282 194.8 17.59 194.03 18.206C193.282 18.822 192.688 19.614 192.248 20.582C191.83 21.55 191.621 22.551 191.621 23.585C191.621 24.949 191.94 26.115 192.578 27.083C193.502 26.665 194.503 26.038 195.581 25.202C196.659 24.344 197.572 23.42 198.32 22.43C199.068 21.44 199.442 20.538 199.442 19.724C199.442 18.096 198.507 17.282 196.637 17.282ZM213.812 19.526C212.822 20.56 211.964 21.913 211.238 23.585C210.534 25.235 210.182 26.742 210.182 28.106C210.182 29.294 210.435 30.295 210.941 31.109C211.469 31.901 212.305 32.297 213.449 32.297C214.373 32.297 215.253 32.055 216.089 31.571C216.947 31.087 217.673 30.46 218.267 29.69L217.904 29.195C217.222 29.657 216.551 29.888 215.891 29.888C214.857 29.888 214.076 29.525 213.548 28.799C213.02 28.073 212.756 27.193 212.756 26.159C212.756 24.487 213.185 22.903 214.043 21.407C214.901 19.911 215.99 18.459 217.31 17.051L216.782 16.589C215.242 17.557 213.834 18.041 212.558 18.041C211.81 18.041 211.128 17.711 210.512 17.051C209.896 16.369 209.423 15.621 209.093 14.807L206.42 17.81C206.574 18.25 206.992 18.756 207.674 19.328L205.463 23.948L206.684 24.509L208.829 19.79C209.203 19.944 209.511 20.043 209.753 20.087C209.995 20.131 210.325 20.153 210.743 20.153C211.821 20.153 212.811 19.911 213.713 19.427L213.812 19.526Z" fill="url(#paint0_linear_95_496)"/>
<defs>
<linearGradient id="paint0_linear_95_496" x1="152.5" y1="-12" x2="152.5" y2="42" gradientUnits="userSpaceOnUse">
<stop stop-color="#65FD58"/>
<stop offset="1" stop-color="#00C2FF"/>
</linearGradient>
</defs>
</svg>
