<svg width="161" height="45" viewBox="0 0 161 45" fill="none" xmlns="http://www.w3.org/2000/svg">
<path d="M15.05 44.25C10.1833 44.25 6.58333 43.6333 4.25 42.4C1.91667 41.1667 0.75 39.5 0.75 37.4C0.75 36.5 0.966667 35.5833 1.4 34.65C1.83333 33.6833 2.43333 32.8667 3.2 32.2C4.6 34.1667 6.2 35.7 8 36.8C9.83333 37.9 12 38.45 14.5 38.45C16.5 38.45 18.1333 38.1333 19.4 37.5C20.6667 36.8667 21.3 35.9167 21.3 34.65C21.3 33.7167 20.7833 32.9667 19.75 32.4C18.75 31.8 17.1167 31.1167 14.85 30.35C12.3833 29.4833 10.3333 28.65 8.7 27.85C7.1 27.05 5.7 25.9167 4.5 24.45C3.33333 22.9833 2.75 21.1333 2.75 18.9C2.75 16.2333 3.58333 13.9833 5.25 12.15C6.95 10.3167 9.21667 8.95 12.05 8.05C14.9167 7.15 18.1 6.7 21.6 6.7C24.2 6.7 26.4667 6.98333 28.4 7.55C30.3667 8.08333 31.8667 8.85 32.9 9.85C33.9333 10.85 34.45 11.9833 34.45 13.25C34.45 14.95 33.85 16.2833 32.65 17.25C31.4833 18.2167 30.0333 18.7 28.3 18.7C26.6667 18.7 25.1833 18.25 23.85 17.35C22.5167 16.4167 21.4667 15.0667 20.7 13.3C18.6667 13.5 16.9833 14 15.65 14.8C14.3167 15.5667 13.65 16.5167 13.65 17.65C13.65 18.65 14.1833 19.45 15.25 20.05C16.3167 20.6167 18 21.2667 20.3 22C22.8 22.8 24.8333 23.5833 26.4 24.35C27.9667 25.0833 29.3167 26.15 30.45 27.55C31.6167 28.9167 32.2 30.6833 32.2 32.85C32.2 35.3167 31.35 37.4167 29.65 39.15C27.9833 40.85 25.8333 42.1333 23.2 43C20.5667 43.8333 17.85 44.25 15.05 44.25ZM64.7758 32.5C65.5091 34.1 66.4258 35.5 67.5258 36.7C68.6591 37.9 70.0925 38.85 71.8258 39.55C69.8924 42.6833 67.3424 44.25 64.1758 44.25C62.4424 44.25 60.9591 43.7 59.7258 42.6C58.4924 41.5 57.1758 39.6667 55.7758 37.1L53.2758 32.45L49.2758 34.55C49.2424 34.95 49.2258 35.5667 49.2258 36.4C49.2258 37.9333 49.3424 39.05 49.5758 39.75C49.8424 40.45 50.2424 41.1333 50.7758 41.8C49.8758 42.6 48.8591 43.2 47.7258 43.6C46.6258 44.0333 45.5758 44.25 44.5758 44.25C42.5758 44.25 41.1258 43.6667 40.2258 42.5C39.3591 41.3333 38.9258 39.5167 38.9258 37.05C38.9258 35.7167 39.1924 33.3833 39.7258 30.05C40.2591 26.6833 41.0091 22.35 41.9758 17.05C42.1424 15.95 42.3091 14.9833 42.4758 14.15C42.6424 13.2833 42.7758 12.5333 42.8758 11.9L40.0758 7.9C41.5758 6.8 43.1424 5.91667 44.7758 5.25C46.4091 4.58333 47.9591 4.25 49.4258 4.25C50.9924 4.25 52.0924 4.53333 52.7258 5.1C53.3591 5.63333 53.6758 6.53333 53.6758 7.8C53.6758 8.7 53.5424 9.81666 53.2758 11.15C53.0424 12.4833 52.6591 14.35 52.1258 16.75C51.0258 21.35 50.2424 25.3667 49.7758 28.8L51.1758 27.65C53.3424 25.9167 54.9758 24.55 56.0758 23.55C57.2091 22.5167 58.1091 21.4667 58.7758 20.4C59.4758 19.3333 59.8258 18.2167 59.8258 17.05C59.8258 16.25 59.6591 15.45 59.3258 14.65C61.5924 13.55 63.6758 13 65.5758 13C67.1091 13 68.3425 13.45 69.2758 14.35C70.2091 15.2167 70.6758 16.3667 70.6758 17.8C70.6758 19.5667 69.9924 21.2333 68.6258 22.8C67.2924 24.3667 65.1424 26.0167 62.1758 27.75L64.7758 32.5ZM84.0016 10.25C82.4349 10.25 81.1516 9.88333 80.1516 9.15C79.1849 8.38333 78.7016 7.36666 78.7016 6.1C78.7016 4.96667 79.0516 3.98333 79.7516 3.15C80.4516 2.31666 81.3182 1.7 82.3516 1.3C83.4182 0.866664 84.4516 0.649997 85.4516 0.649997C87.0182 0.649997 88.2849 1.03333 89.2516 1.8C90.2516 2.53333 90.7516 3.53333 90.7516 4.8C90.7516 6.36667 90.0849 7.66667 88.7516 8.7C87.4182 9.73333 85.8349 10.25 84.0016 10.25ZM81.0016 44.25C78.9349 44.25 77.4349 43.7333 76.5016 42.7C75.5682 41.6667 75.1016 40.1167 75.1016 38.05C75.1016 35.8833 76.1682 30.1833 78.3016 20.95L75.5016 16.75C77.1016 15.6167 78.7516 14.7167 80.4516 14.05C82.1849 13.35 83.8182 13 85.3516 13C86.7182 13 87.6849 13.3 88.2516 13.9C88.8182 14.4667 89.1016 15.4 89.1016 16.7C89.1016 17.1333 88.9682 17.9333 88.7016 19.1C88.4682 20.2333 88.2016 21.4833 87.9016 22.85C87.1349 26.0167 86.5182 28.7833 86.0516 31.15C85.6182 33.4833 85.4016 35.5167 85.4016 37.25C85.4016 39.3833 85.9182 40.9 86.9516 41.8C85.0849 43.4333 83.1016 44.25 81.0016 44.25ZM100.386 44.25C98.3863 44.25 96.9363 43.6667 96.0363 42.5C95.1697 41.3333 94.7363 39.5167 94.7363 37.05C94.7363 35.7167 95.003 33.3833 95.5363 30.05C96.0697 26.6833 96.8197 22.35 97.7863 17.05C97.953 15.95 98.1197 14.9833 98.2863 14.15C98.453 13.2833 98.5863 12.5333 98.6863 11.9L95.8863 7.9C97.3863 6.8 98.953 5.91667 100.586 5.25C102.22 4.58333 103.77 4.25 105.236 4.25C106.803 4.25 107.903 4.53333 108.536 5.1C109.17 5.63333 109.486 6.53333 109.486 7.8C109.486 8.66666 109.353 9.78333 109.086 11.15C108.853 12.5167 108.47 14.3833 107.936 16.75C107.036 20.6833 106.32 24.2 105.786 27.3C105.286 30.3667 105.036 33.4 105.036 36.4C105.036 37.9333 105.153 39.05 105.386 39.75C105.653 40.45 106.053 41.1333 106.586 41.8C105.686 42.6 104.67 43.2 103.536 43.6C102.436 44.0333 101.386 44.25 100.386 44.25ZM119.625 44.25C117.625 44.25 116.175 43.6667 115.275 42.5C114.408 41.3333 113.975 39.5167 113.975 37.05C113.975 35.7167 114.241 33.3833 114.775 30.05C115.308 26.6833 116.058 22.35 117.025 17.05C117.191 15.95 117.358 14.9833 117.525 14.15C117.691 13.2833 117.825 12.5333 117.925 11.9L115.125 7.9C116.625 6.8 118.191 5.91667 119.825 5.25C121.458 4.58333 123.008 4.25 124.475 4.25C126.041 4.25 127.141 4.53333 127.775 5.1C128.408 5.63333 128.725 6.53333 128.725 7.8C128.725 8.66666 128.591 9.78333 128.325 11.15C128.091 12.5167 127.708 14.3833 127.175 16.75C126.275 20.6833 125.558 24.2 125.025 27.3C124.525 30.3667 124.275 33.4 124.275 36.4C124.275 37.9333 124.391 39.05 124.625 39.75C124.891 40.45 125.291 41.1333 125.825 41.8C124.925 42.6 123.908 43.2 122.775 43.6C121.675 44.0333 120.625 44.25 119.625 44.25ZM143.763 44.25C139.396 44.25 136.23 43.7 134.263 42.6C132.296 41.4667 131.313 39.95 131.313 38.05C131.313 37.1833 131.563 36.2833 132.063 35.35C132.563 34.4167 133.263 33.6167 134.163 32.95C136.096 36.4167 139.113 38.15 143.213 38.15C144.313 38.15 145.446 37.9 146.613 37.4C147.78 36.8667 148.363 36.1167 148.363 35.15C148.363 34.55 147.98 34.0667 147.213 33.7C146.446 33.3333 145.163 32.8667 143.363 32.3C141.263 31.6667 139.513 31.05 138.113 30.45C136.713 29.8167 135.496 28.9333 134.463 27.8C133.43 26.6333 132.913 25.15 132.913 23.35C132.913 19.85 134.43 17.25 137.463 15.55C140.496 13.85 144.313 13 148.913 13C152.413 13 155.18 13.55 157.213 14.65C159.246 15.7167 160.263 17.1333 160.263 18.9C160.263 20.4 159.73 21.5833 158.663 22.45C157.596 23.3167 156.313 23.75 154.813 23.75C153.413 23.75 152.113 23.3167 150.913 22.45C149.713 21.5833 148.763 20.3167 148.063 18.65C146.663 18.7833 145.463 19.1667 144.463 19.8C143.463 20.4333 142.963 21.2167 142.963 22.15C142.963 22.9167 143.38 23.5167 144.213 23.95C145.046 24.3833 146.413 24.8833 148.313 25.45C150.38 26.0833 152.08 26.7 153.413 27.3C154.78 27.9 155.946 28.7833 156.913 29.95C157.913 31.1167 158.413 32.6333 158.413 34.5C158.413 36.7333 157.646 38.5833 156.113 40.05C154.58 41.5167 152.68 42.5833 150.413 43.25C148.18 43.9167 145.963 44.25 143.763 44.25Z" fill="url(#paint0_linear_51_1216)"/>
<defs>
<linearGradient id="paint0_linear_51_1216" x1="83" y1="-24" x2="83" y2="55" gradientUnits="userSpaceOnUse">
<stop stop-color="#65FD58"/>
<stop offset="1" stop-color="#00C2FF"/>
</linearGradient>
</defs>
</svg>
