<svg width="150" height="41" viewBox="0 0 150 41" fill="none" xmlns="http://www.w3.org/2000/svg">
<path d="M30.3 3.35C30.9 4.78333 31.2 6.36667 31.2 8.1C31.2 10.1667 30.5333 11.8 29.2 13C27.8667 14.1667 26.05 14.75 23.75 14.75C22.7167 14.75 21.5667 14.6667 20.3 14.5C19.4 19 18.7167 22.5667 18.25 25.2C17.7833 27.8333 17.55 29.7 17.55 30.8C17.55 34.0333 18.05 36.45 19.05 38.05C17.05 39.55 14.9833 40.3 12.85 40.3C10.65 40.3 9.08333 39.6833 8.15 38.45C7.21667 37.1833 6.75 35.2167 6.75 32.55C6.75 30.9833 6.98333 28.6833 7.45 25.65C7.91667 22.6167 8.66667 18.3167 9.7 12.75L8.5 12.7L0.9 14.65C0.3 13.2167 1.41561e-07 11.6333 1.41561e-07 9.9C1.41561e-07 7.83333 0.666667 6.21666 2 5.05C3.33333 3.85 5.15 3.25 7.45 3.25C8.61667 3.25 9.78333 3.33333 10.95 3.5C12.1167 3.66666 13.5333 3.91666 15.2 4.25C16.8 4.58333 18.1667 4.83333 19.3 5C20.4333 5.16667 21.5667 5.26667 22.7 5.3L30.3 3.35ZM55.0875 12.8C57.0208 12.8 58.5875 13.5833 59.7875 15.15C61.0208 16.6833 61.6375 18.6833 61.6375 21.15C61.6375 24.65 60.8375 27.8667 59.2375 30.8C57.6375 33.7 55.4542 36 52.6875 37.7C49.9542 39.4 46.9375 40.25 43.6375 40.25C40.8708 40.25 38.4542 39.7167 36.3875 38.65C34.3208 37.55 32.7208 36.0167 31.5875 34.05C30.4875 32.05 29.9375 29.7333 29.9375 27.1C29.9375 23.6 30.7542 20.4833 32.3875 17.75C34.0208 15.0167 36.2708 12.8833 39.1375 11.35C42.0375 9.78333 45.3042 9 48.9375 9C50.0708 9 51.2542 9.13333 52.4875 9.4C52.8208 10.5667 52.9708 11.8333 52.9375 13.2C53.6708 12.9333 54.3875 12.8 55.0875 12.8ZM45.2375 35.1C47.1708 35.1 48.7708 34.3333 50.0375 32.8C51.3375 31.2667 52.1542 29.15 52.4875 26.45C49.9542 25.05 48.6875 22.9167 48.6875 20.05C48.6875 18.6167 49.0042 17.3333 49.6375 16.2C50.2708 15.0333 51.1208 14.15 52.1875 13.55C49.7208 13.6833 47.5542 14.3833 45.6875 15.65C43.8208 16.8833 42.3708 18.5167 41.3375 20.55C40.3375 22.55 39.8375 24.7667 39.8375 27.2C39.8375 29.9333 40.3042 31.9333 41.2375 33.2C42.2042 34.4667 43.5375 35.1 45.2375 35.1ZM91.025 12.8C92.9583 12.8 94.525 13.5833 95.725 15.15C96.9583 16.6833 97.575 18.6833 97.575 21.15C97.575 24.65 96.775 27.8667 95.175 30.8C93.575 33.7 91.3917 36 88.625 37.7C85.8917 39.4 82.875 40.25 79.575 40.25C76.8083 40.25 74.3917 39.7167 72.325 38.65C70.2583 37.55 68.6583 36.0167 67.525 34.05C66.425 32.05 65.875 29.7333 65.875 27.1C65.875 23.6 66.6917 20.4833 68.325 17.75C69.9583 15.0167 72.2083 12.8833 75.075 11.35C77.975 9.78333 81.2417 9 84.875 9C86.0083 9 87.1917 9.13333 88.425 9.4C88.7583 10.5667 88.9083 11.8333 88.875 13.2C89.6083 12.9333 90.325 12.8 91.025 12.8ZM81.175 35.1C83.1083 35.1 84.7083 34.3333 85.975 32.8C87.275 31.2667 88.0917 29.15 88.425 26.45C85.8917 25.05 84.625 22.9167 84.625 20.05C84.625 18.6167 84.9417 17.3333 85.575 16.2C86.2083 15.0333 87.0583 14.15 88.125 13.55C85.6583 13.6833 83.4917 14.3833 81.625 15.65C79.7583 16.8833 78.3083 18.5167 77.275 20.55C76.275 22.55 75.775 24.7667 75.775 27.2C75.775 29.9333 76.2417 31.9333 77.175 33.2C78.1417 34.4667 79.475 35.1 81.175 35.1ZM108.713 40.25C106.713 40.25 105.263 39.6667 104.363 38.5C103.496 37.3333 103.063 35.5167 103.063 33.05C103.063 31.7167 103.329 29.3833 103.863 26.05C104.396 22.6833 105.146 18.35 106.113 13.05C106.279 11.95 106.446 10.9833 106.613 10.15C106.779 9.28333 106.913 8.53333 107.013 7.9L104.213 3.9C105.713 2.8 107.279 1.91667 108.913 1.25C110.546 0.583331 112.096 0.249998 113.563 0.249998C115.129 0.249998 116.229 0.533332 116.863 1.1C117.496 1.63333 117.813 2.53333 117.813 3.8C117.813 4.66666 117.679 5.78333 117.413 7.15C117.179 8.51667 116.796 10.3833 116.263 12.75C115.363 16.6833 114.646 20.2 114.113 23.3C113.613 26.3667 113.363 29.4 113.363 32.4C113.363 33.9333 113.479 35.05 113.713 35.75C113.979 36.45 114.379 37.1333 114.913 37.8C114.013 38.6 112.996 39.2 111.863 39.6C110.763 40.0333 109.713 40.25 108.713 40.25ZM132.851 40.25C128.484 40.25 125.317 39.7 123.351 38.6C121.384 37.4667 120.401 35.95 120.401 34.05C120.401 33.1833 120.651 32.2833 121.151 31.35C121.651 30.4167 122.351 29.6167 123.251 28.95C125.184 32.4167 128.201 34.15 132.301 34.15C133.401 34.15 134.534 33.9 135.701 33.4C136.867 32.8667 137.451 32.1167 137.451 31.15C137.451 30.55 137.067 30.0667 136.301 29.7C135.534 29.3333 134.251 28.8667 132.451 28.3C130.351 27.6667 128.601 27.05 127.201 26.45C125.801 25.8167 124.584 24.9333 123.551 23.8C122.517 22.6333 122.001 21.15 122.001 19.35C122.001 15.85 123.517 13.25 126.551 11.55C129.584 9.85 133.401 9 138.001 9C141.501 9 144.267 9.55 146.301 10.65C148.334 11.7167 149.351 13.1333 149.351 14.9C149.351 16.4 148.817 17.5833 147.751 18.45C146.684 19.3167 145.401 19.75 143.901 19.75C142.501 19.75 141.201 19.3167 140.001 18.45C138.801 17.5833 137.851 16.3167 137.151 14.65C135.751 14.7833 134.551 15.1667 133.551 15.8C132.551 16.4333 132.051 17.2167 132.051 18.15C132.051 18.9167 132.467 19.5167 133.301 19.95C134.134 20.3833 135.501 20.8833 137.401 21.45C139.467 22.0833 141.167 22.7 142.501 23.3C143.867 23.9 145.034 24.7833 146.001 25.95C147.001 27.1167 147.501 28.6333 147.501 30.5C147.501 32.7333 146.734 34.5833 145.201 36.05C143.667 37.5167 141.767 38.5833 139.501 39.25C137.267 39.9167 135.051 40.25 132.851 40.25Z" fill="url(#paint0_linear_53_1219)"/>
<defs>
<linearGradient id="paint0_linear_53_1219" x1="86.5" y1="-28" x2="86.5" y2="51" gradientUnits="userSpaceOnUse">
<stop stop-color="#65FD58"/>
<stop offset="1" stop-color="#00C2FF"/>
</linearGradient>
</defs>
</svg>
