<svg width="1485" height="606" viewBox="0 0 1485 606" fill="none" xmlns="http://www.w3.org/2000/svg">
<path fill-rule="evenodd" clip-rule="evenodd" d="M1327 135.169C1327 104.65 1316.91 75.0288 1298.38 51.1259C1279.85 27.223 1253.97 10.4454 1224.94 3.52303C1195.91 -3.39932 1165.45 -0.0588817 1138.52 13.0008C1111.58 26.0604 1089.75 48.0706 1076.58 75.4497C1063.41 102.829 1059.68 133.965 1065.99 163.793C1072.3 193.62 1088.29 220.382 1111.34 239.725C1134.39 259.067 1163.16 269.851 1192.96 270.322C1210.3 270.596 1227.4 267.369 1243.32 260.957C1240.09 265.894 1237.17 271.066 1234.58 276.445C1225.66 295.004 1221.07 315.29 1221 335.724C1202.94 336.285 1185.06 340.639 1168.52 348.662C1141.58 361.722 1119.75 383.732 1106.58 411.111C1093.41 438.49 1089.68 469.627 1095.99 499.454C1102.3 529.281 1118.29 556.044 1141.34 575.386C1164.4 594.729 1193.16 605.513 1222.96 605.984C1252.76 606.455 1281.84 596.585 1305.47 577.981L1298.12 568.195C1276.65 585.101 1250.23 594.069 1223.15 593.641C1196.07 593.213 1169.93 583.414 1148.98 565.838C1128.03 548.262 1113.51 523.943 1107.78 496.84C1102.04 469.737 1105.43 441.444 1117.4 416.565C1129.36 391.687 1149.2 371.687 1173.67 359.82C1188.76 352.508 1205.05 348.549 1221.51 348.058C1222 353.658 1222.82 359.245 1223.99 364.788C1230.3 394.615 1246.29 421.377 1269.34 440.72C1292.4 460.062 1321.16 470.846 1350.96 471.317C1380.76 471.788 1409.84 461.919 1433.47 443.314L1426.12 433.529C1406.06 449.321 1381.69 458.187 1356.49 458.937C1354.22 432.677 1344.5 407.571 1328.38 386.788C1309.85 362.885 1283.97 346.107 1254.94 339.185C1247.71 337.46 1240.39 336.373 1233.06 335.914C1233.09 317.295 1237.26 298.808 1245.4 281.899C1257.36 257.02 1277.2 237.02 1301.67 225.153C1326.15 213.286 1353.83 210.251 1380.21 216.541C1406.58 222.831 1430.1 238.076 1446.94 259.796C1463.78 281.516 1472.95 308.432 1472.95 336.164H1485C1485 305.645 1474.91 276.024 1456.38 252.121C1437.85 228.218 1411.97 211.44 1382.94 204.518C1353.91 197.596 1323.45 200.936 1296.52 213.996C1286.26 218.967 1276.75 225.235 1268.17 232.603L1268.12 232.533C1246.65 249.439 1220.23 258.408 1193.15 257.979C1166.07 257.551 1139.93 247.752 1118.98 230.176C1098.03 212.6 1083.51 188.282 1077.78 161.178C1072.04 134.075 1075.43 105.782 1087.4 80.9036C1099.36 56.0249 1119.2 36.0248 1143.67 24.1578C1168.15 12.2909 1195.83 9.2555 1222.21 15.5457C1248.58 21.8358 1272.1 37.0813 1288.94 58.8012C1305.78 80.5212 1314.95 107.437 1314.95 135.169H1327ZM1233.64 348.325C1234.09 352.961 1234.8 357.584 1235.78 362.174C1241.51 389.277 1256.03 413.595 1276.98 431.171C1296.17 447.273 1319.72 456.848 1344.36 458.67C1342.09 435.299 1333.31 412.991 1318.94 394.463C1302.1 372.743 1278.58 357.497 1252.21 351.207C1246.07 349.744 1239.86 348.786 1233.64 348.325ZM4 152H323V447H4V152ZM0 148H4H323H327V152V447V451H323H4H0V447V152V148Z" fill="url(#paint0_linear_70_163)" fill-opacity="0.58"/>
<defs>
<linearGradient id="paint0_linear_70_163" x1="175.914" y1="26.1294" x2="270.106" y2="700.44" gradientUnits="userSpaceOnUse">
<stop offset="0.0282836" stop-color="#65FD58"/>
<stop offset="0.327041" stop-color="#0CE7A5"/>
<stop offset="0.612038" stop-color="#6941AA"/>
<stop offset="1" stop-color="#123FDE"/>
</linearGradient>
</defs>
</svg>
