<svg width="607" height="423" viewBox="0 0 607 423" fill="none" xmlns="http://www.w3.org/2000/svg">
<path fill-rule="evenodd" clip-rule="evenodd" d="M210.333 180.278C188.846 166.215 162.998 158.012 135.189 158.01C60.5373 158.005 0.0155421 217.098 0.0100124 290C0.00448269 362.902 60.5173 422.005 135.169 422.01C209.821 422.016 270.343 362.922 270.348 290.021C270.35 272.987 267.047 256.707 261.032 241.758C282.406 255.746 308.093 263.936 335.735 264.025C337.894 335.076 397.551 392.03 470.833 392.036C545.485 392.041 606.007 332.947 606.012 260.046C606.018 187.288 545.744 128.275 471.295 128.036C469.135 56.9847 409.478 0.0309044 336.196 0.0253459C261.544 0.0196835 201.023 59.1135 201.017 132.015C201.016 149.049 204.318 165.329 210.333 180.278ZM258.004 290.02C257.999 356.263 203.004 409.96 135.17 409.955C67.3358 409.95 12.3493 356.245 12.3544 290.001C12.3594 223.757 67.354 170.06 135.188 170.065C203.023 170.07 258.009 223.776 258.004 290.02ZM593.668 260.045C593.673 193.884 538.824 140.23 471.107 140.091C467.077 205.386 414.443 257.877 348.069 263.522C349.959 328.149 404.197 379.976 470.834 379.981C538.668 379.986 593.663 326.289 593.668 260.045ZM348.332 251.391C407.563 245.714 454.447 198.948 458.697 140.67C399.467 146.347 352.582 193.113 348.332 251.391ZM335.922 251.97C339.952 186.675 392.586 134.184 458.96 128.539C457.071 63.9115 402.832 12.0853 336.195 12.0803C268.361 12.0751 213.366 65.7722 213.361 132.016C213.356 198.177 268.205 251.831 335.922 251.97Z" fill="url(#paint0_linear_61_1123)" fill-opacity="0.58"/>
<defs>
<linearGradient id="paint0_linear_61_1123" x1="26.1332" y1="372.002" x2="579.834" y2="99.8746" gradientUnits="userSpaceOnUse">
<stop offset="0.0282836" stop-color="#65FD58"/>
<stop offset="0.327041" stop-color="#0CE7A5"/>
<stop offset="0.612038" stop-color="#6941AA"/>
<stop offset="1" stop-color="#123FDE"/>
</linearGradient>
</defs>
</svg>
