<svg width="422" height="603" viewBox="0 0 422 603" fill="none" xmlns="http://www.w3.org/2000/svg">
<path fill-rule="evenodd" clip-rule="evenodd" d="M186.617 50.8728C168.086 74.6574 158 104.132 158 134.5H170.055C170.055 106.905 179.22 80.1225 196.059 58.5101C212.897 36.8977 236.418 21.7277 262.794 15.4687C289.17 9.20968 316.849 12.23 341.326 24.0383C365.803 35.8465 385.638 55.7476 397.603 80.5031C409.569 105.259 412.96 133.411 407.225 160.381C401.49 187.35 386.967 211.547 366.019 229.037C345.07 246.526 318.93 256.276 291.851 256.702C264.773 257.128 238.349 248.204 216.881 231.382L216.829 231.451C208.252 224.12 198.738 217.883 188.485 212.936C161.547 199.941 131.087 196.618 102.06 203.506C73.0329 210.394 47.1479 227.088 28.617 250.873C10.0861 274.657 0 304.132 0 334.5H12.0549C12.0549 306.905 21.2199 280.123 38.0585 258.51C54.897 236.898 78.4181 221.728 104.794 215.469C131.17 209.21 158.849 212.23 183.326 224.038C207.803 235.846 227.638 255.748 239.603 280.503C247.736 297.329 251.907 315.724 251.945 334.251C244.612 334.707 237.291 335.79 230.06 337.506C201.033 344.394 175.148 361.088 156.617 384.873C140.505 405.553 130.777 430.535 128.512 456.665C103.314 455.919 78.9357 447.096 58.8813 431.382L51.5326 441.119C75.1583 459.632 104.237 469.453 134.037 468.984C163.838 468.515 192.605 457.785 215.659 438.538C238.712 419.291 254.695 392.661 261.006 362.982C262.179 357.467 263.005 351.907 263.488 346.335C279.947 346.823 296.244 350.763 311.326 358.038C335.803 369.846 355.638 389.748 367.603 414.503C379.568 439.259 382.96 467.411 377.225 494.381C371.49 521.35 356.967 545.547 336.018 563.036C315.07 580.526 288.93 590.276 261.851 590.702C234.773 591.128 208.349 582.204 186.881 565.382L179.533 575.119C203.158 593.632 232.237 603.453 262.037 602.984C291.837 602.515 320.605 591.785 343.659 572.538C366.712 553.291 382.695 526.661 389.006 496.982C395.317 467.302 391.586 436.32 378.418 409.076C365.25 381.833 343.422 359.931 316.484 346.936C299.936 338.953 282.058 334.62 263.999 334.062C263.934 313.729 259.344 293.544 250.418 275.076C247.831 269.724 244.91 264.578 241.681 259.665C257.601 266.046 274.697 269.257 292.037 268.984C321.838 268.515 350.605 257.785 373.659 238.538C396.712 219.291 412.695 192.661 419.006 162.982C425.318 133.302 421.586 102.32 408.418 75.0762C395.25 47.8326 373.422 25.9314 346.485 12.9364C319.547 -0.0585901 289.087 -3.38249 260.06 3.50559C231.033 10.3937 205.148 27.0883 186.617 50.8728ZM249.225 360.381C250.196 355.814 250.905 351.213 251.356 346.601C245.136 347.059 238.93 348.013 232.794 349.469C206.418 355.728 182.897 370.898 166.058 392.51C151.695 410.946 142.915 433.144 140.644 456.399C165.279 454.586 188.828 445.058 208.018 429.036C228.967 411.547 243.49 387.35 249.225 360.381Z" fill="url(#paint0_linear_61_686)" fill-opacity="0.58"/>
<defs>
<linearGradient id="paint0_linear_61_686" x1="372" y1="26.0001" x2="102" y2="578" gradientUnits="userSpaceOnUse">
<stop offset="0.0282836" stop-color="#65FD58"/>
<stop offset="0.327041" stop-color="#0CE7A5"/>
<stop offset="0.612038" stop-color="#6941AA"/>
<stop offset="1" stop-color="#123FDE"/>
</linearGradient>
</defs>
</svg>
