<svg width="362" height="123" viewBox="0 0 362 123" fill="none" xmlns="http://www.w3.org/2000/svg">
<g filter="url(#filter0_d_61_698)">
<path fill-rule="evenodd" clip-rule="evenodd" d="M8.57892 36.5515C4.39319 40.9546 4.64291 47.8381 9.13668 51.9263L66.9608 104.531V122.505H315.961V120.543C320.458 123.994 326.99 123.549 330.959 119.374L331.652 118.644L358.227 119.842L354.509 91.9595C354.871 89.8398 354.587 87.6412 353.67 85.6631L353.484 84.2693L353.133 84.652C352.601 83.766 351.929 82.9397 351.121 82.204L322.759 56.4024C320.822 54.6397 318.411 53.6845 315.961 53.521V51.5045L187.961 82.445L95.7271 58.8603L45.7591 13.4023C41.2654 9.31409 34.2292 9.56935 30.0435 13.9724L8.57892 36.5515Z" fill="#1B0B7B"/>
</g>
<defs>
<filter id="filter0_d_61_698" x="0.595947" y="0.495605" width="360.631" height="122.355" filterUnits="userSpaceOnUse" color-interpolation-filters="sRGB">
<feFlood flood-opacity="0" result="BackgroundImageFix"/>
<feColorMatrix in="SourceAlpha" type="matrix" values="0 0 0 0 0 0 0 0 0 0 0 0 0 0 0 0 0 0 127 0" result="hardAlpha"/>
<feOffset dx="-1" dy="-6"/>
<feGaussianBlur stdDeviation="2"/>
<feComposite in2="hardAlpha" operator="out"/>
<feColorMatrix type="matrix" values="0 0 0 0 0 0 0 0 0 0 0 0 0 0 0 0 0 0 0.25 0"/>
<feBlend mode="normal" in2="BackgroundImageFix" result="effect1_dropShadow_61_698"/>
<feBlend mode="normal" in="SourceGraphic" in2="effect1_dropShadow_61_698" result="shape"/>
</filter>
</defs>
</svg>
