<svg width="1486" height="606" viewBox="0 0 1486 606" fill="none" xmlns="http://www.w3.org/2000/svg">
<path fill-rule="evenodd" clip-rule="evenodd" d="M1328 135.169C1328 104.65 1317.91 75.0288 1299.38 51.1259C1280.85 27.223 1254.97 10.4454 1225.94 3.52303C1196.91 -3.39932 1166.45 -0.0588816 1139.52 13.0008C1112.58 26.0604 1090.75 48.0706 1077.58 75.4497C1064.41 102.829 1060.68 133.965 1066.99 163.793C1073.3 193.62 1089.29 220.382 1112.34 239.725C1135.39 259.067 1164.16 269.851 1193.96 270.322C1211.3 270.596 1228.4 267.369 1244.32 260.957C1241.09 265.894 1238.17 271.066 1235.58 276.445C1226.66 295.004 1222.07 315.29 1222 335.724C1203.94 336.285 1186.06 340.639 1169.52 348.662C1142.58 361.722 1120.75 383.732 1107.58 411.111C1094.41 438.49 1090.68 469.627 1096.99 499.454C1103.3 529.281 1119.29 556.044 1142.34 575.386C1165.4 594.729 1194.16 605.513 1223.96 605.984C1253.76 606.455 1282.84 596.585 1306.47 577.981L1299.12 568.195C1277.65 585.101 1251.23 594.069 1224.15 593.641C1197.07 593.213 1170.93 583.414 1149.98 565.838C1129.03 548.262 1114.51 523.943 1108.78 496.84C1103.04 469.737 1106.43 441.444 1118.4 416.565C1130.36 391.687 1150.2 371.687 1174.67 359.82C1189.76 352.508 1206.05 348.549 1222.51 348.058C1223 353.658 1223.82 359.245 1224.99 364.788C1231.3 394.615 1247.29 421.377 1270.34 440.72C1293.4 460.062 1322.16 470.846 1351.96 471.317C1381.76 471.788 1410.84 461.919 1434.47 443.314L1427.12 433.529C1407.06 449.321 1382.69 458.187 1357.49 458.937C1355.22 432.677 1345.5 407.571 1329.38 386.788C1310.85 362.885 1284.97 346.107 1255.94 339.185C1248.71 337.46 1241.39 336.373 1234.06 335.914C1234.09 317.295 1238.26 298.808 1246.4 281.899C1258.36 257.02 1278.2 237.02 1302.67 225.153C1327.15 213.286 1354.83 210.251 1381.21 216.541C1407.58 222.831 1431.1 238.076 1447.94 259.796C1464.78 281.516 1473.95 308.432 1473.95 336.164H1486C1486 305.645 1475.91 276.024 1457.38 252.121C1438.85 228.218 1412.97 211.44 1383.94 204.518C1354.91 197.596 1324.45 200.936 1297.52 213.996C1287.26 218.967 1277.75 225.235 1269.17 232.603L1269.12 232.533C1247.65 249.439 1221.23 258.408 1194.15 257.979C1167.07 257.551 1140.93 247.752 1119.98 230.176C1099.03 212.6 1084.51 188.282 1078.78 161.178C1073.04 134.075 1076.43 105.782 1088.4 80.9036C1100.36 56.0249 1120.2 36.0248 1144.67 24.1578C1169.15 12.2909 1196.83 9.2555 1223.21 15.5457C1249.58 21.8358 1273.1 37.0813 1289.94 58.8012C1306.78 80.5212 1315.95 107.437 1315.95 135.169H1328ZM1234.64 348.325C1235.09 352.961 1235.8 357.584 1236.78 362.174C1242.51 389.277 1257.03 413.595 1277.98 431.171C1297.17 447.273 1320.72 456.848 1345.36 458.67C1343.09 435.299 1334.31 412.991 1319.94 394.463C1303.1 372.743 1279.58 357.497 1253.21 351.207C1247.07 349.744 1240.86 348.786 1234.64 348.325ZM4.96069 152H383.961V490H4.96069V152ZM0.960693 148H4.96069H383.961H387.961V152V490V494H383.961H4.96069H0.960693V490V152V148Z" fill="url(#paint0_linear_61_941)" fill-opacity="0.58"/>
<defs>
<linearGradient id="paint0_linear_61_941" x1="176.914" y1="26.1294" x2="271.106" y2="700.44" gradientUnits="userSpaceOnUse">
<stop offset="0.0282836" stop-color="#65FD58"/>
<stop offset="0.327041" stop-color="#0CE7A5"/>
<stop offset="0.612038" stop-color="#6941AA"/>
<stop offset="1" stop-color="#123FDE"/>
</linearGradient>
</defs>
</svg>
