<svg width="657" height="423" viewBox="0 0 657 423" fill="none" xmlns="http://www.w3.org/2000/svg">
<path fill-rule="evenodd" clip-rule="evenodd" d="M608.114 192.366C581.183 170.281 546.095 158.042 509.7 158.039L509.699 170.094C542.77 170.096 574.654 181.217 599.125 201.286C623.597 221.355 638.9 248.931 642.046 278.63C645.192 308.329 635.956 338.02 616.141 361.906C596.326 385.793 567.354 402.159 534.881 407.812C502.409 413.464 468.766 407.996 440.522 392.475C412.278 376.954 391.459 352.495 382.13 323.872C372.801 295.249 375.631 264.517 390.069 237.675C404.506 210.834 429.514 189.81 460.21 178.708L455.237 167.519C445.737 170.955 436.733 175.254 428.342 180.316C434.862 165.362 438.443 149.075 438.444 132.033C438.45 59.1317 372.944 0.028332 292.132 0.0222024C212.804 0.0161852 148.215 56.9606 145.866 128.012C65.2746 128.238 0.0176847 187.242 0.0121659 260C0.00663621 332.902 65.5128 392.005 146.324 392.011C225.653 392.017 290.241 335.073 292.59 264.022C322.537 263.937 350.366 255.738 373.516 241.732C361.656 268.941 360.108 299.039 369.31 327.272C379.576 358.772 402.487 385.69 433.57 402.77C464.653 419.851 501.677 425.869 537.413 419.648C573.149 413.428 605.033 395.416 626.84 369.129C648.646 342.842 658.81 310.168 655.348 277.483C651.886 244.799 635.045 214.452 608.114 192.366ZM13.3751 260.001C13.3801 193.84 72.763 140.195 146.067 140.066C150.42 205.362 207.388 257.862 279.238 263.517C277.182 328.144 218.46 379.962 146.325 379.956C72.8939 379.951 13.3701 326.245 13.3751 260.001ZM278.955 251.386C214.838 245.699 164.093 198.926 159.502 140.647C223.618 146.334 274.364 193.107 278.955 251.386ZM292.389 251.967C288.037 186.671 231.068 134.172 159.219 128.516C161.274 63.8894 219.996 12.0717 292.131 12.0772C365.563 12.0827 425.086 65.7885 425.081 132.032C425.076 198.193 365.694 251.838 292.389 251.967Z" fill="url(#paint0_linear_95_601)" fill-opacity="0.58"/>
<defs>
<linearGradient id="paint0_linear_95_601" x1="627.72" y1="372.048" x2="47.773" y2="63.3879" gradientUnits="userSpaceOnUse">
<stop offset="0.0282836" stop-color="#65FD58"/>
<stop offset="0.327041" stop-color="#0CE7A5"/>
<stop offset="0.612038" stop-color="#6941AA"/>
<stop offset="1" stop-color="#123FDE"/>
</linearGradient>
</defs>
</svg>
