<svg width="254" height="58" viewBox="0 0 254 58" fill="none" xmlns="http://www.w3.org/2000/svg">
<g filter="url(#filter0_d_100_1997)">
<path d="M53.0625 0.820801L31.6318 49.6978H25.9922L4.45898 0.820801H8.38965L28.9316 46.9292L49.2344 0.820801H53.0625ZM59.2832 49.6978H55.4551L77.5693 0.820801H81.8418L104.059 49.6978H99.7861L92.54 33.2915H70.6309L71.6904 30.2153H91.207L79.4834 3.62354L59.2832 49.6978ZM116.021 0.820801V49.6978H112.433V0.820801H116.021ZM145.792 49.6978V0.820801H166.642C175.938 0.820801 180.587 4.61475 180.587 12.2026C180.587 17.7625 177.215 21.7388 170.47 24.1313C177.625 25.339 181.202 29.1558 181.202 35.5815C181.202 44.9924 176.109 49.6978 165.924 49.6978H145.792ZM165.548 46.6216C173.432 46.6216 177.374 42.9757 177.374 35.6841C177.374 29.2355 172.441 26.0112 162.574 26.0112H159.84V23.5845C171.233 22.5591 176.93 18.8449 176.93 12.4419C176.93 6.74528 173.421 3.89697 166.402 3.89697H149.381V46.6216H165.548ZM196.549 0.820801V49.6978H192.96V0.820801H196.549ZM209.229 49.6978V0.820801H213.844L246.485 43.6138V0.820801H249.732V49.6978H246.827L212.477 4.854V49.6978H209.229Z" fill="url(#paint0_linear_100_1997)"/>
<path d="M53.0625 0.820801L53.1541 0.860957L53.2155 0.720801H53.0625V0.820801ZM31.6318 49.6978V49.7978H31.6972L31.7234 49.7379L31.6318 49.6978ZM25.9922 49.6978L25.9007 49.7381L25.927 49.7978H25.9922V49.6978ZM4.45898 0.820801V0.720801H4.30565L4.36747 0.861118L4.45898 0.820801ZM8.38965 0.820801L8.48099 0.780105L8.45457 0.720801H8.38965V0.820801ZM28.9316 46.9292L28.8403 46.9699L28.9322 47.1761L29.0232 46.9695L28.9316 46.9292ZM49.2344 0.820801V0.720801H49.1691L49.1429 0.780502L49.2344 0.820801ZM52.9709 0.780645L31.5403 49.6576L31.7234 49.7379L53.1541 0.860957L52.9709 0.780645ZM31.6318 49.5978H25.9922V49.7978H31.6318V49.5978ZM26.0837 49.6574L4.5505 0.780484L4.36747 0.861118L25.9007 49.7381L26.0837 49.6574ZM4.45898 0.920801H8.38965V0.720801H4.45898V0.920801ZM8.2983 0.861496L28.8403 46.9699L29.023 46.8885L8.48099 0.780105L8.2983 0.861496ZM29.0232 46.9695L49.3259 0.8611L49.1429 0.780502L28.8401 46.8889L29.0232 46.9695ZM49.2344 0.920801H53.0625V0.720801H49.2344V0.920801ZM59.2832 49.6978V49.7978H59.3485L59.3748 49.7379L59.2832 49.6978ZM55.4551 49.6978L55.364 49.6565L55.3001 49.7978H55.4551V49.6978ZM77.5693 0.820801V0.720801H77.5048L77.4782 0.779579L77.5693 0.820801ZM81.8418 0.820801L81.9328 0.77942L81.9062 0.720801H81.8418V0.820801ZM104.059 49.6978V49.7978H104.214L104.15 49.6564L104.059 49.6978ZM99.7861 49.6978L99.6947 49.7382L99.721 49.7978H99.7861V49.6978ZM92.54 33.2915L92.6315 33.2511L92.6052 33.1915H92.54V33.2915ZM70.6309 33.2915L70.5363 33.2589L70.4906 33.3915H70.6309V33.2915ZM71.6904 30.2153V30.1153H71.6191L71.5959 30.1828L71.6904 30.2153ZM91.207 30.2153V30.3153H91.3604L91.2985 30.175L91.207 30.2153ZM79.4834 3.62354L79.5749 3.58319L79.4831 3.37507L79.3918 3.58338L79.4834 3.62354ZM59.2832 49.5978H55.4551V49.7978H59.2832V49.5978ZM55.5462 49.739L77.6604 0.862023L77.4782 0.779579L55.364 49.6565L55.5462 49.739ZM77.5693 0.920801H81.8418V0.720801H77.5693V0.920801ZM81.7508 0.862181L103.968 49.7391L104.15 49.6564L81.9328 0.77942L81.7508 0.862181ZM104.059 49.5978H99.7861V49.7978H104.059V49.5978ZM99.8776 49.6574L92.6315 33.2511L92.4486 33.3319L99.6947 49.7382L99.8776 49.6574ZM92.54 33.1915H70.6309V33.3915H92.54V33.1915ZM70.7254 33.3241L71.785 30.2479L71.5959 30.1828L70.5363 33.2589L70.7254 33.3241ZM71.6904 30.3153H91.207V30.1153H71.6904V30.3153ZM91.2985 30.175L79.5749 3.58319L79.3919 3.66388L91.1155 30.2557L91.2985 30.175ZM79.3918 3.58338L59.1916 49.6576L59.3748 49.7379L79.575 3.66369L79.3918 3.58338ZM116.021 0.820801H116.121V0.720801H116.021V0.820801ZM116.021 49.6978V49.7978H116.121V49.6978H116.021ZM112.433 49.6978H112.333V49.7978H112.433V49.6978ZM112.433 0.820801V0.720801H112.333V0.820801H112.433ZM115.921 0.820801V49.6978H116.121V0.820801H115.921ZM116.021 49.5978H112.433V49.7978H116.021V49.5978ZM112.533 49.6978V0.820801H112.333V49.6978H112.533ZM112.433 0.920801H116.021V0.720801H112.433V0.920801ZM145.792 49.6978H145.692V49.7978H145.792V49.6978ZM145.792 0.820801V0.720801H145.692V0.820801H145.792ZM170.47 24.1313L170.436 24.0371L170.073 24.1659L170.453 24.23L170.47 24.1313ZM159.84 26.0112H159.74V26.1112H159.84V26.0112ZM159.84 23.5845L159.831 23.4849L159.74 23.4931V23.5845H159.84ZM149.381 3.89697V3.79697H149.281V3.89697H149.381ZM149.381 46.6216H149.281V46.7216H149.381V46.6216ZM145.892 49.6978V0.820801H145.692V49.6978H145.892ZM145.792 0.920801H166.642V0.720801H145.792V0.920801ZM166.642 0.920801C171.279 0.920801 174.738 1.86744 177.037 3.74373C179.332 5.61685 180.487 8.43008 180.487 12.2026H180.687C180.687 8.38731 179.517 5.50962 177.164 3.58879C174.814 1.67113 171.301 0.720801 166.642 0.720801V0.920801ZM180.487 12.2026C180.487 14.9606 179.651 17.3213 177.981 19.2901C176.31 21.2606 173.798 22.8446 170.436 24.0371L170.503 24.2256C173.886 23.0255 176.433 21.4251 178.134 19.4194C179.836 17.412 180.687 15.0046 180.687 12.2026H180.487ZM170.453 24.23C174.017 24.8315 176.677 26.0808 178.446 27.968C180.214 29.8539 181.102 32.388 181.102 35.5815H181.302C181.302 32.3494 180.402 29.7622 178.592 27.8313C176.783 25.9018 174.077 24.6388 170.486 24.0327L170.453 24.23ZM181.102 35.5815C181.102 40.2694 179.834 43.7675 177.315 46.0953C174.794 48.4244 171.003 49.5978 165.924 49.5978V49.7978C171.03 49.7978 174.879 48.6184 177.45 46.2422C180.024 43.8645 181.302 40.3045 181.302 35.5815H181.102ZM165.924 49.5978H145.792V49.7978H165.924V49.5978ZM165.548 46.7216C169.503 46.7216 172.489 45.8072 174.485 43.9606C176.483 42.1127 177.474 39.3474 177.474 35.6841H177.274C177.274 39.3124 176.294 42.0159 174.35 43.8138C172.404 45.6131 169.476 46.5216 165.548 46.5216V46.7216ZM177.474 35.6841C177.474 32.4298 176.227 29.9783 173.729 28.3457C171.238 26.718 167.515 25.9112 162.574 25.9112V26.1112C167.5 26.1112 171.177 26.9166 173.619 28.5132C176.055 30.1049 177.274 32.4898 177.274 35.6841H177.474ZM162.574 25.9112H159.84V26.1112H162.574V25.9112ZM159.94 26.0112V23.5845H159.74V26.0112H159.94ZM159.849 23.6841C165.552 23.1708 169.843 21.9837 172.712 20.1136C175.586 18.2394 177.03 15.6796 177.03 12.4419H176.83C176.83 15.6072 175.425 18.106 172.603 19.946C169.774 21.79 165.521 22.9728 159.831 23.4849L159.849 23.6841ZM177.03 12.4419C177.03 9.57201 176.145 7.40351 174.361 5.95556C172.581 4.51085 169.922 3.79697 166.402 3.79697V3.99697C169.901 3.99697 172.506 4.70725 174.235 6.11085C175.96 7.5112 176.83 9.61516 176.83 12.4419H177.03ZM166.402 3.79697H149.381V3.99697H166.402V3.79697ZM149.281 3.89697V46.6216H149.481V3.89697H149.281ZM149.381 46.7216H165.548V46.5216H149.381V46.7216ZM196.549 0.820801H196.649V0.720801H196.549V0.820801ZM196.549 49.6978V49.7978H196.649V49.6978H196.549ZM192.96 49.6978H192.86V49.7978H192.96V49.6978ZM192.96 0.820801V0.720801H192.86V0.820801H192.96ZM196.449 0.820801V49.6978H196.649V0.820801H196.449ZM196.549 49.5978H192.96V49.7978H196.549V49.5978ZM193.06 49.6978V0.820801H192.86V49.6978H193.06ZM192.96 0.920801H196.549V0.720801H192.96V0.920801ZM209.229 49.6978H209.129V49.7978H209.229V49.6978ZM209.229 0.820801V0.720801H209.129V0.820801H209.229ZM213.844 0.820801L213.923 0.760152L213.893 0.720801H213.844V0.820801ZM246.485 43.6138L246.406 43.6744L246.585 43.9098V43.6138H246.485ZM246.485 0.820801V0.720801H246.385V0.820801H246.485ZM249.732 0.820801H249.832V0.720801H249.732V0.820801ZM249.732 49.6978V49.7978H249.832V49.6978H249.732ZM246.827 49.6978L246.748 49.7586L246.778 49.7978H246.827V49.6978ZM212.477 4.854L212.556 4.79319L212.377 4.55901V4.854H212.477ZM212.477 49.6978V49.7978H212.577V49.6978H212.477ZM209.329 49.6978V0.820801H209.129V49.6978H209.329ZM209.229 0.920801H213.844V0.720801H209.229V0.920801ZM213.764 0.881449L246.406 43.6744L246.565 43.5531L213.923 0.760152L213.764 0.881449ZM246.585 43.6138V0.820801H246.385V43.6138H246.585ZM246.485 0.920801H249.732V0.720801H246.485V0.920801ZM249.632 0.820801V49.6978H249.832V0.820801H249.632ZM249.732 49.5978H246.827V49.7978H249.732V49.5978ZM246.907 49.6369L212.556 4.79319L212.397 4.91481L246.748 49.7586L246.907 49.6369ZM212.377 4.854V49.6978H212.577V4.854H212.377ZM212.477 49.5978H209.229V49.7978H212.477V49.5978Z" fill="black"/>
</g>
<defs>
<filter id="filter0_d_100_1997" x="0.458984" y="0.820801" width="253.273" height="56.877" filterUnits="userSpaceOnUse" color-interpolation-filters="sRGB">
<feFlood flood-opacity="0" result="BackgroundImageFix"/>
<feColorMatrix in="SourceAlpha" type="matrix" values="0 0 0 0 0 0 0 0 0 0 0 0 0 0 0 0 0 0 127 0" result="hardAlpha"/>
<feOffset dy="4"/>
<feGaussianBlur stdDeviation="2"/>
<feComposite in2="hardAlpha" operator="out"/>
<feColorMatrix type="matrix" values="0 0 0 0 0 0 0 0 0 0 0 0 0 0 0 0 0 0 0.95 0"/>
<feBlend mode="normal" in2="BackgroundImageFix" result="effect1_dropShadow_100_1997"/>
<feBlend mode="normal" in="SourceGraphic" in2="effect1_dropShadow_100_1997" result="shape"/>
</filter>
<linearGradient id="paint0_linear_100_1997" x1="275.933" y1="-21.338" x2="33.6456" y2="116.841" gradientUnits="userSpaceOnUse">
<stop offset="0.1875" stop-color="#FFA800"/>
<stop offset="0.463542" stop-color="#C8C7C7"/>
<stop offset="0.536458" stop-color="white"/>
<stop offset="0.619792" stop-color="#C8C7C4"/>
<stop offset="0.869792" stop-color="#FFA800"/>
</linearGradient>
</defs>
</svg>
