<svg width="94" height="98" viewBox="0 0 94 98" fill="none" xmlns="http://www.w3.org/2000/svg">
<path d="M47 0C21.0426 0 0 21.938 0 49C0 76.062 21.0426 98 47 98C72.9574 98 94 76.062 94 49C94 21.938 72.9574 0 47 0ZM30.1094 19.4636C31.0777 19.4041 31.953 20.0075 32.6166 21.0786L39.0424 33.7831C39.7189 35.2886 39.3345 36.9005 38.3252 37.9761L35.382 41.0446C35.2003 41.3041 35.0808 41.5964 35.0779 41.9179C36.2066 46.4728 39.6304 50.6744 42.6512 53.5638C45.6719 56.4531 48.9186 60.3651 53.1332 61.2918C53.6541 61.4433 54.2923 61.4976 54.6651 61.1364L58.0845 57.5057C59.2648 56.5729 60.9723 56.1209 62.2325 56.8836H62.2899L73.8849 64.0195C75.5869 65.1317 75.7632 67.2816 74.5447 68.5893L66.5585 76.8496C65.3791 78.1106 63.8123 78.5345 62.29 78.5364C55.5574 78.3261 49.196 74.8811 43.9709 71.3407C35.3941 64.8357 27.5269 56.7676 22.5878 47.0202C20.6936 42.9327 18.4683 37.7175 18.6807 33.1553C18.6997 31.439 19.1451 29.7575 20.3044 28.6513L28.2907 20.3251C28.9128 19.7732 29.5283 19.4994 30.1094 19.4636Z" fill="#00C2FF"/>
</svg>
