<svg width="64" height="64" viewBox="0 0 64 64" fill="none" xmlns="http://www.w3.org/2000/svg">
<path d="M32 64C27.6667 64 23.5208 63.1562 19.5625 61.4688C15.6042 59.7812 12.1979 57.5104 9.34375 54.6562C6.48958 51.8021 4.21875 48.3958 2.53125 44.4375C0.84375 40.4792 0 36.3333 0 32C0 27.6667 0.84375 23.5208 2.53125 19.5625C4.21875 15.6042 6.48958 12.1979 9.34375 9.34375C12.1979 6.48958 15.6042 4.21875 19.5625 2.53125C23.5208 0.84375 27.6667 0 32 0C36.3333 0 40.4792 0.84375 44.4375 2.53125C48.3958 4.21875 51.8021 6.48958 54.6562 9.34375C57.5104 12.1979 59.7812 15.6042 61.4688 19.5625C63.1562 23.5208 64 27.6667 64 32C64 36.3333 63.1562 40.4792 61.4688 44.4375C59.7812 48.3958 57.5104 51.8021 54.6562 54.6562C51.8021 57.5104 48.3958 59.7812 44.4375 61.4688C40.4792 63.1562 36.3333 64 32 64ZM48 20C48 18.9167 47.6146 17.9792 46.8438 17.1875C46.0729 16.3958 45.125 16 44 16H20C18.9167 16 17.9792 16.3958 17.1875 17.1875C16.3958 17.9792 16 18.9167 16 20V24H23.125C25.5417 21.3333 28.5 20 32 20C35.5 20 38.4583 21.3333 40.875 24H48V20ZM24 32C24 34.2083 24.7812 36.0938 26.3438 37.6562C27.9062 39.2188 29.7917 40 32 40C34.2083 40 36.0938 39.2188 37.6562 37.6562C39.2188 36.0938 40 34.2083 40 32C40 29.7917 39.2188 27.9062 37.6562 26.3438C36.0938 24.7812 34.2083 24 32 24C29.7917 24 27.9062 24.7812 26.3438 26.3438C24.7812 27.9062 24 29.7917 24 32ZM48 28H43.25C43.75 29.375 44 30.7083 44 32C44 35.3333 42.8333 38.1667 40.5 40.5C38.1667 42.8333 35.3333 44 32 44C28.6667 44 25.8333 42.8333 23.5 40.5C21.1667 38.1667 20 35.3333 20 32C20 30.7083 20.25 29.375 20.75 28H16V44C16 45.125 16.3854 46.0729 17.1562 46.8438C17.9271 47.6146 18.875 48 20 48H44C45.125 48 46.0729 47.6146 46.8438 46.8438C47.6146 46.0729 48 45.125 48 44V28Z" fill="#00C2FF"/>
</svg>
