<svg width="94" height="88" viewBox="0 0 94 88" fill="none" xmlns="http://www.w3.org/2000/svg">
<path d="M47 88C40.6354 88 34.5462 86.8398 28.7324 84.5195C22.9186 82.1992 17.9157 79.0768 13.7236 75.1523C9.53158 71.2279 6.19629 66.5443 3.71777 61.1016C1.23926 55.6589 0 49.9583 0 44C0 38.0417 1.23926 32.3411 3.71777 26.8984C6.19629 21.4557 9.53158 16.7721 13.7236 12.8477C17.9157 8.92318 22.9186 5.80078 28.7324 3.48047C34.5462 1.16016 40.6354 0 47 0C53.3646 0 59.4538 1.16016 65.2676 3.48047C71.0814 5.80078 76.0843 8.92318 80.2764 12.8477C84.4684 16.7721 87.8037 21.4557 90.2822 26.8984C92.7607 32.3411 94 38.0417 94 44C94 49.9583 92.7607 55.6589 90.2822 61.1016C87.8037 66.5443 84.4684 71.2279 80.2764 75.1523C76.0843 79.0768 71.0814 82.1992 65.2676 84.5195C59.4538 86.8398 53.3646 88 47 88ZM70.5 27.5C70.5 26.0104 69.9339 24.7214 68.8018 23.6328C67.6696 22.5443 66.2773 22 64.625 22H29.375C27.7839 22 26.4069 22.5443 25.2441 23.6328C24.0814 24.7214 23.5 26.0104 23.5 27.5V33H33.9648C37.5143 29.3333 41.8594 27.5 47 27.5C52.1406 27.5 56.4857 29.3333 60.0352 33H70.5V27.5ZM35.25 44C35.25 47.0365 36.3975 49.6289 38.6924 51.7773C40.9873 53.9258 43.7565 55 47 55C50.2435 55 53.0127 53.9258 55.3076 51.7773C57.6025 49.6289 58.75 47.0365 58.75 44C58.75 40.9635 57.6025 38.3711 55.3076 36.2227C53.0127 34.0742 50.2435 33 47 33C43.7565 33 40.9873 34.0742 38.6924 36.2227C36.3975 38.3711 35.25 40.9635 35.25 44ZM70.5 38.5H63.5234C64.2578 40.3906 64.625 42.224 64.625 44C64.625 48.5833 62.9115 52.4792 59.4844 55.6875C56.0573 58.8958 51.8958 60.5 47 60.5C42.1042 60.5 37.9427 58.8958 34.5156 55.6875C31.0885 52.4792 29.375 48.5833 29.375 44C29.375 42.224 29.7422 40.3906 30.4766 38.5H23.5V60.5C23.5 62.0469 24.0661 63.3503 25.1982 64.4102C26.3304 65.4701 27.7227 66 29.375 66H64.625C66.2773 66 67.6696 65.4701 68.8018 64.4102C69.9339 63.3503 70.5 62.0469 70.5 60.5V38.5Z" fill="#00C2FF"/>
</svg>
